<svg xmlns="http://www.w3.org/2000/svg"><defs><symbol id="icon-add" viewBox="0 0 30 30"><path d="M15 3C8.373 3 3 8.373 3 15s5.373 12 12 12 12-5.373 12-12S21.627 3 15 3zm6 13h-5v5c0 .553-.448 1-1 1s-1-.447-1-1v-5H9c-.552 0-1-.447-1-1s.448-1 1-1h5V9c0-.553.448-1 1-1s1 .447 1 1v5h5c.552 0 1 .447 1 1s-.448 1-1 1z"/></symbol><symbol id="icon-beach" viewBox="0 0 30 30"><path d="M11 3C7.686 3 5 5.686 5 9c0 .52.073 1.02.197 1.5C5.864 7.914 8.205 6 11 6c1.363 0 2.614.46 3.62 1.227-.892-.25-1.865-.305-2.874-.1-2.296.466-4.153 2.32-4.62 4.617-.277 1.37-.087 2.682.44 3.8.342.727 1.47.497 1.438-.306-.022-.558.035-1.138.18-1.73.518-2.11 2.215-3.806 4.324-4.324.494-.122.978-.175 1.45-.178C14.255 18.246 4 22 4 22v2c0 1.105.895 2 2 2h18c1.105 0 2-.895 2-2v-2s-1 1-2 1-2-1-2-1-1 1-2 1-2-1-2-1-1 1-2 1-2-1-2-1h-1.91s4.87-3.37 4.906-12.898c.172.028.344.042.518.085 2.095.522 3.777 2.206 4.3 4.3.146.596.203 1.18.182 1.742-.03.804 1.1 1.034 1.442.305.524-1.117.713-2.422.435-3.79-.45-2.21-2.194-4.002-4.373-4.548.48-.124.98-.197 1.5-.197 2.795 0 5.136 1.914 5.803 4.5.124-.48.197-.98.197-1.5 0-3.314-2.686-6-6-6-1.892 0-3.57.884-4.67 2.252C15.333 4.322 13.323 3 11 3z"/></symbol><symbol id="icon-calendar-delete" viewBox="0 0 30 30"><path d="M6 4c-1.105 0-2 .895-2 2v18c0 1.105.895 2 2 2h8.523c-.333-.94-.523-1.946-.523-3 0-.27.016-.537.04-.8-.015-.068-.04-.13-.04-.2 0-.17.055-.324.13-.465.15-.9.426-1.755.82-2.545-.528-.027-.95-.455-.95-.99 0-.552.448-1 1-1 .378 0 .695.218.865.527.814-1.06 1.857-1.93 3.057-2.543-.514-.042-.922-.46-.922-.984 0-.552.448-1 1-1s1 .448 1 1c0 .232-.093.435-.225.605.708-.272 1.456-.463 2.237-.548C22.01 14.037 22 14.02 22 14c0-.552.448-1 1-1s1 .448 1 1c0 .02-.01.037-.012.057.7.076 1.37.24 2.012.466V6c0-1.105-.895-2-2-2H6zm0 2h18v4H6V6zm5 7c.552 0 1 .448 1 1s-.448 1-1 1-1-.448-1-1 .448-1 1-1zm4 0c.552 0 1 .448 1 1s-.448 1-1 1-1-.448-1-1 .448-1 1-1zm8 3c-3.866 0-7 3.134-7 7s3.134 7 7 7 7-3.134 7-7-3.134-7-7-7zM7 17c.552 0 1 .448 1 1s-.448 1-1 1-1-.448-1-1 .448-1 1-1zm4 0c.552 0 1 .448 1 1s-.448 1-1 1-1-.448-1-1 .448-1 1-1zm10 3c.256 0 .512.097.707.293L23 21.586l1.293-1.293c.39-.39 1.023-.39 1.414 0 .39.39.39 1.023 0 1.414L24.414 23l1.293 1.293c.39.39.39 1.023 0 1.414-.195.195-.45.293-.707.293-.256 0-.512-.098-.707-.293L23 24.414l-1.293 1.293c-.195.195-.45.293-.707.293-.256 0-.512-.098-.707-.293-.39-.39-.39-1.023 0-1.414L21.586 23l-1.293-1.293c-.39-.39-.39-1.023 0-1.414.195-.196.45-.293.707-.293zM7 21c.552 0 1 .448 1 1s-.448 1-1 1-1-.448-1-1 .448-1 1-1zm4 0c.552 0 1 .448 1 1s-.448 1-1 1-1-.448-1-1 .448-1 1-1z"/></symbol><symbol id="icon-calendar-plus" viewBox="0 0 30 30"><path d="M6 4c-1.105 0-2 .895-2 2v18c0 1.105.895 2 2 2h8.523c-.333-.94-.523-1.946-.523-3 0-.27.016-.537.04-.8-.015-.068-.04-.13-.04-.2 0-.17.055-.324.13-.465.15-.9.426-1.755.82-2.545-.528-.027-.95-.455-.95-.99 0-.552.448-1 1-1 .378 0 .695.218.865.527.814-1.06 1.857-1.93 3.057-2.543-.514-.042-.922-.46-.922-.984 0-.552.448-1 1-1s1 .448 1 1c0 .232-.093.435-.225.605.708-.272 1.456-.463 2.237-.548C22.01 14.037 22 14.02 22 14c0-.552.448-1 1-1s1 .448 1 1c0 .02-.01.037-.012.057.7.076 1.37.24 2.012.466V6c0-1.105-.895-2-2-2H6zm0 2h18v4H6V6zm5 7c.552 0 1 .448 1 1s-.448 1-1 1-1-.448-1-1 .448-1 1-1zm4 0c.552 0 1 .448 1 1s-.448 1-1 1-1-.448-1-1 .448-1 1-1zm8 3c-3.866 0-7 3.134-7 7s3.134 7 7 7 7-3.134 7-7-3.134-7-7-7zM7 17c.552 0 1 .448 1 1s-.448 1-1 1-1-.448-1-1 .448-1 1-1zm4 0c.552 0 1 .448 1 1s-.448 1-1 1-1-.448-1-1 .448-1 1-1zm12 2c.552 0 1 .447 1 1v2h2c.552 0 1 .447 1 1 0 .553-.448 1-1 1h-2v2c0 .553-.448 1-1 1s-1-.447-1-1v-2h-2c-.552 0-1-.447-1-1 0-.553.448-1 1-1h2v-2c0-.553.448-1 1-1zM7 21c.552 0 1 .448 1 1s-.448 1-1 1-1-.448-1-1 .448-1 1-1zm4 0c.552 0 1 .448 1 1s-.448 1-1 1-1-.448-1-1 .448-1 1-1z"/></symbol><symbol id="icon-calendar" viewBox="0 0 30 30"><path d="M24 4H6c-1.105 0-2 .895-2 2v18c0 1.105.895 2 2 2h18c1.105 0 2-.895 2-2V6c0-1.105-.895-2-2-2zM7 23c-.552 0-1-.448-1-1s.448-1 1-1 1 .448 1 1-.448 1-1 1zm0-4c-.552 0-1-.448-1-1s.448-1 1-1 1 .448 1 1-.448 1-1 1zm4 4c-.552 0-1-.448-1-1s.448-1 1-1 1 .448 1 1-.448 1-1 1zm0-4c-.552 0-1-.448-1-1s.448-1 1-1 1 .448 1 1-.448 1-1 1zm0-4c-.552 0-1-.448-1-1s.448-1 1-1 1 .448 1 1-.448 1-1 1zm4 8c-.552 0-1-.448-1-1s.448-1 1-1 1 .448 1 1-.448 1-1 1zm0-4c-.552 0-1-.448-1-1s.448-1 1-1 1 .448 1 1-.448 1-1 1zm0-4c-.552 0-1-.448-1-1s.448-1 1-1 1 .448 1 1-.448 1-1 1zm4 8c-.552 0-1-.448-1-1s.448-1 1-1 1 .448 1 1-.448 1-1 1zm0-4c-.552 0-1-.448-1-1s.448-1 1-1 1 .448 1 1-.448 1-1 1zm-1-5c0-.552.448-1 1-1s1 .448 1 1-.448 1-1 1-1-.448-1-1zm5 5c-.552 0-1-.448-1-1s.448-1 1-1 1 .448 1 1-.448 1-1 1zm0-4c-.552 0-1-.448-1-1s.448-1 1-1 1 .448 1 1-.448 1-1 1zm1-5H6V6h18v4z"/></symbol><symbol id="icon-check-list" viewBox="0 0 50 50"><path d="M13.094 4.78l-5.188 6.595L6 9.687l-2.656 3 3.5 3.126 1.593 1.406 1.313-1.69 6.5-8.31zM19 9v4h27V9zm-5.906 9.78l-5.188 6.595L6 23.687l-2.656 3 3.5 3.125 1.593 1.407 1.313-1.69 6.5-8.31zM19 23v4h27v-4zm-5.906 9.78l-5.188 6.595L6 37.687l-2.656 3 3.5 3.126 1.593 1.406 1.313-1.69 6.5-8.31zM19 37v4h27v-4z"/></symbol><symbol id="icon-chef-toque" viewBox="0 0 30 30"><path style="line-height:normal;text-indent:0;text-align:start;text-decoration-line:none;text-decoration-style:solid;text-decoration-color:#000;text-transform:none;block-progression:tb;isolation:auto;mix-blend-mode:normal" d="M15 3c-2.077 0-3.846 1.103-4.908 2.72a1 1 0 0 0-.334.362c-.03.05-.045.108-.072.16C9.296 6.14 8.922 6 8.5 6 5.474 6 3 8.474 3 11.5c0 2.114 1.242 3.894 3 4.81v5.522a1 1 0 0 0 0 .326V26a1 1 0 0 0 1 1h16a1 1 0 0 0 1-1v-3.832a1 1 0 0 0 0-.326v-5.446a1 1 0 0 0 .314-.277C25.9 15.16 27 13.482 27 11.5 27 8.474 24.526 6 21.5 6c-.45 0-.844.16-1.262.264C19.238 4.35 17.304 3 15 3zm0 2c1.76 0 3.22 1.132 3.762 2.703a1 1 0 0 0 1.343.59c.433-.188.9-.293 1.395-.293 1.944 0 3.5 1.556 3.5 3.5 0 1.528-.975 2.8-2.334 3.28a1 1 0 0 0-.13.06c-.452.14-.935.193-1.423.14a1 1 0 0 0-.224 1.987c.373.042.744.03 1.11-.002V21h-3v-1a1 1 0 0 0-1.016-1.014A1 1 0 0 0 17 20v1h-4v-3a1 1 0 0 0-1.016-1.014A1 1 0 0 0 11 18v3H8v-5.275a1 1 0 0 0-.666-.944C5.974 14.3 5 13.03 5 11.5 5 9.556 6.556 8 8.5 8c.198 0 .388.028.576.06-.114.715-.102 1.453.053 2.182a1 1 0 1 0 1.956-.416c-.144-.675-.097-1.364.1-2.006a1 1 0 0 0 .052-.117C11.78 6.133 13.24 5 15 5zM8 23h3.832a1 1 0 0 0 .326 0h5.674a1 1 0 0 0 .326 0H22v2H8v-2z" font-weight="400" font-family="sans-serif" white-space="normal" overflow="visible"/></symbol><symbol id="icon-copybook" viewBox="0 0 30 30"><path style="line-height:normal;text-indent:0;text-align:start;text-decoration-line:none;text-decoration-style:solid;text-decoration-color:#000;text-transform:none;block-progression:tb;isolation:auto;mix-blend-mode:normal" d="M4 3v4H3a1 1 0 1 0 0 2h1c.552 0 1 .447 1 1 0 .553-.448 1-1 1H3a1 1 0 1 0 0 2h1c.552 0 1 .447 1 1 0 .553-.448 1-1 1H3a1 1 0 1 0 0 2h1c.552 0 1 .447 1 1 0 .553-.448 1-1 1H3a1 1 0 1 0 0 2h1c.552 0 1 .447 1 1 0 .553-.448 1-1 1v4h17c1.105 0 2-.895 2-2V5c0-1.105-.895-2-2-2H4zm22 3a1 1 0 0 0-1 1v4h2V7a1 1 0 0 0-1-1zM9 7h9v4H9V7zm16 6v5h2v-5h-2zm0 7v4a1 1 0 0 0 1 1 1 1 0 0 0 1-1v-4h-2z"/></symbol><symbol id="icon-delete-button" viewBox="0 0 30 30"><path d="M15 3C8.373 3 3 8.373 3 15s5.373 12 12 12 12-5.373 12-12S21.627 3 15 3zm1.414 12l3.293 3.293c.39.39.39 1.024 0 1.414-.39.39-1.024.39-1.414 0L15 16.414l-3.293 3.293c-.39.39-1.024.39-1.414 0-.39-.39-.39-1.024 0-1.414L13.586 15l-3.293-3.293c-.39-.39-.39-1.024 0-1.414.39-.39 1.024-.39 1.414 0L15 13.586l3.293-3.293c.39-.39 1.024-.39 1.414 0 .39.39.39 1.024 0 1.414L16.414 15z"/></symbol><symbol id="icon-draft" viewBox="0 0 30 30"><path d="M6.943 7c-.598 0-1.163.268-1.543.73L.47 13.712A2 2 0 0 0 0 15a2 2 0 0 0 .504 1.322l4.896 5.95c.38.46.945.728 1.543.728H28c1.105 0 2-.895 2-2V9c0-1.105-.895-2-2-2H6.943zM6 13h1.68c1.19 0 1.87.712 1.87 1.96C9.547 16.276 8.88 17 7.68 17H6v-4zm5 .004h1.76c.933 0 1.492.49 1.492 1.318 0 .49-.245.938-.682 1.13L14.367 17h-1.14l-.684-1.398h-.525V17H11v-3.996zm5.377 0h1.244L18.966 17h-1.11l-.248-.88h-1.304l-.258.88h-1.01l1.342-3.996zm3.623 0h2.72v.816h-1.704v.912h1.547v.78h-1.547V17H20v-3.996zm3.84 0h3.32v.816h-1.154V17h-1.014v-3.18H23.84v-.816zm-11.822.767v1.115h.6c.373 0 .597-.208.597-.555 0-.34-.237-.56-.6-.56h-.597zm-5 .046v2.368h.478c.66 0 1.018-.41 1.018-1.204 0-.744-.378-1.164-1.018-1.164h-.478zm9.916.088l-.438 1.487h.92l-.43-1.486h-.052z"/></symbol><symbol id="icon-edit" viewBox="0 0 30 30"><path d="M5 3c-1.093 0-2 .907-2 2v13a1 1 0 1 0 2 0V5h13a1 1 0 1 0 0-2H5zm4 4c-1.093 0-2 .907-2 2v13a1 1 0 1 0 2 0V9h13a1 1 0 1 0 0-2H9zm4 4c-1.105 0-2 .895-2 2v12c0 1.105.895 2 2 2h8.672l-2-2H13V13h12v6.672l2 2V13c0-1.105-.895-2-2-2H13zm5 7l.475 2.977 6.568 6.566 2.5-2.5-6.568-6.566L18 18zm10.957 8.457l-2.5 2.5.525.525c.69.69 1.81.69 2.5 0s.69-1.81 0-2.5l-.525-.525z"/></symbol><symbol id="icon-expand-arrow" viewBox="0 0 50 50"><path d="M44.984 12.97c-.53.014-1.03.233-1.398.616L25 32.172 6.414 13.586c-.38-.387-.894-.606-1.437-.606-.813 0-1.543.497-1.848 1.25-.31.754-.126 1.618.456 2.184l20 20c.78.78 2.047.78 2.828 0l20-20c.594-.57.78-1.45.46-2.21-.315-.763-1.065-1.25-1.89-1.235z"/></symbol><symbol id="icon-green-check-mark" viewBox="0 0 50 50"><path d="M41.938 8.625c-.665.023-1.274.375-1.626.938L21.5 38.343 9.312 27.814c-.523-.543-1.308-.747-2.03-.52-.72.223-1.255.832-1.38 1.574-.125.746.176 1.496.785 1.945l13.938 12.063c.438.37 1.016.535 1.582.453.57-.086 1.074-.41 1.387-.89L43.687 11.75c.43-.63.465-1.44.094-2.105-.37-.66-1.085-1.055-1.843-1.02z"/></symbol><symbol id="icon-heart-outline" viewBox="0 0 30 30"><path style="line-height:normal;text-indent:0;text-align:start;text-decoration-line:none;text-decoration-style:solid;text-decoration-color:#000;text-transform:none;block-progression:tb;isolation:auto;mix-blend-mode:normal" d="M9.545 3C5.39 3 2 6.39 2 10.545c0 3.738 2.9 7.54 5.66 10.574 2.76 3.034 5.512 5.25 5.512 5.25a1 1 0 0 0 .025.02c.446.335 1.005.554 1.612.594A1 1 0 0 0 15 27a1 1 0 0 0 .19-.016 1 1 0 0 0 .01-.002c.603-.042 1.16-.258 1.603-.593a1 1 0 0 0 .025-.02s2.752-2.216 5.512-5.25C25.1 18.084 28 14.282 28 10.544 28 6.39 24.61 3 20.455 3 17.84 3 15.99 4.44 15 5.457 14.01 4.44 12.16 3 9.545 3zm0 2c2.73 0 4.393 2.242 4.56 2.475a1 1 0 0 0 .89.54 1 1 0 0 0 .023 0 1 1 0 0 0 .023-.003 1 1 0 0 0 .077-.006 1 1 0 0 0 .776-.527C16.05 7.257 17.716 5 20.455 5 23.53 5 26 7.47 26 10.545c0 2.603-2.5 6.325-5.14 9.228-2.632 2.894-5.252 5.007-5.27 5.022-.176.13-.37.205-.59.205-.22 0-.414-.074-.59-.205-.018-.015-2.638-2.128-5.27-5.022C6.5 16.87 4 13.148 4 10.545 4 7.47 6.47 5 9.545 5z" font-weight="400" font-family="sans-serif" white-space="normal" overflow="visible"/></symbol><symbol id="icon-heart" viewBox="0 0 30 30"><path d="M9.545 4C5.93 4 3 6.93 3 10.545c0 6.292 7.3 12.305 10.71 14.982a2 2 0 0 0 .01.008l.077.063.002-.002A2 2 0 0 0 15 26a2 2 0 0 0 1.203-.404v.002l.024-.018.017-.014a2 2 0 0 0 .02-.017C19.664 22.88 27 16.85 27 10.544 27 6.93 24.07 4 20.455 4 17 4 15 7 15 7s-2-3-5.455-3z"/></symbol><symbol id="icon-image" viewBox="0 0 30 30"><path d="M4 5c-1.105 0-2 .895-2 2v16c0 1.105.895 2 2 2h22c1.105 0 2-.895 2-2V7c0-1.105-.895-2-2-2H4zm19 3c1.105 0 2 .895 2 2s-.895 2-2 2-2-.895-2-2 .895-2 2-2zM9 12.002c.62 0 1.238.236 1.71.71l3.263 3.26L15 17l1.156 1.156c.422.422 1.104.418 1.526-.004.423-.422.423-1.108 0-1.53l-1.153-1.15.76-.76c.944-.946 2.476-.946 3.42 0L25 19v3H5v-7l2.29-2.29c.472-.472 1.09-.708 1.71-.708z"/></symbol><symbol id="icon-index" viewBox="0 0 30 30"><path d="M5 7a3 3 0 0 0-3 3 3 3 0 0 0 3 3 3 3 0 0 0 3-3 3 3 0 0 0-3-3zm7 0a1 1 0 1 0 0 2h15a1 1 0 1 0 0-2H12zm0 4a1 1 0 1 0 0 2h11a1 1 0 1 0 0-2H12zm-7 7a3 3 0 0 0-3 3 3 3 0 0 0 3 3 3 3 0 0 0 3-3 3 3 0 0 0-3-3zm7 0a1 1 0 1 0 0 2h15a1 1 0 1 0 0-2H12zm0 4a1 1 0 1 0 0 2h11a1 1 0 1 0 0-2H12z"/></symbol><symbol id="icon-link" viewBox="0 0 30 30"><path d="M22 2c-1.603 0-3.108.625-4.242 1.758l-2 2C14.625 6.892 14 8.398 14 10c0 1.264.393 2.464 1.113 3.473l-1.64 1.64C12.463 14.393 11.263 14 10 14c-1.603 0-3.108.625-4.242 1.758l-2 2C2.625 18.892 2 20.398 2 22c0 1.603.625 3.108 1.758 4.242S6.398 28 8 28c1.603 0 3.108-.625 4.242-1.758l2-2C15.375 23.108 16 21.602 16 20c0-.55-.08-1.088-.22-1.605l-1.8 1.798c-.046.96-.422 1.904-1.152 2.635l-2 2c-1.56 1.56-4.097 1.56-5.656 0-1.56-1.56-1.56-4.097 0-5.656l2-2c.78-.78 1.805-1.168 2.83-1.168.702 0 1.397.195 2.02.56l-2.73 2.73a1 1 0 1 0 1.415 1.413l10-10a1 1 0 0 0-.727-1.717 1 1 0 0 0-.687.303l-2.73 2.728c-.9-1.532-.706-3.534.61-4.848l2-2c.78-.78 1.802-1.168 2.827-1.168s2.048.39 2.828 1.168c1.56 1.56 1.56 4.097 0 5.656l-2 2c-.73.73-1.676 1.106-2.635 1.152l-1.798 1.8c.517.14 1.054.22 1.605.22 1.603 0 3.108-.625 4.242-1.758l2-2C27.375 11.108 28 9.602 28 8c0-1.603-.625-3.108-1.758-4.242C25.108 2.625 23.602 2 22 2z"/></symbol><symbol id="icon-list-view" viewBox="0 0 30 30"><path d="M23 2H7c-1.105 0-2 .895-2 2v22c0 1.105.895 2 2 2h11.5c.265 0 .52-.105.707-.293l5.5-5.5c.188-.188.293-.442.293-.707V4c0-1.105-.895-2-2-2zM9 6c.552 0 1 .448 1 1s-.448 1-1 1-1-.448-1-1 .448-1 1-1zm4 0h8c.552 0 1 .448 1 1s-.448 1-1 1h-8c-.552 0-1-.448-1-1s.448-1 1-1zm-4 5c.552 0 1 .448 1 1s-.448 1-1 1-1-.448-1-1 .448-1 1-1zm4 0h8c.552 0 1 .448 1 1s-.448 1-1 1h-8c-.552 0-1-.448-1-1s.448-1 1-1zm-4 5c.552 0 1 .448 1 1s-.448 1-1 1-1-.448-1-1 .448-1 1-1zm4 0h8c.552 0 1 .448 1 1s-.448 1-1 1h-8c-.552 0-1-.448-1-1s.448-1 1-1zm-4 5c.552 0 1 .448 1 1s-.448 1-1 1-1-.448-1-1 .448-1 1-1zm4 0h3v2h-3c-.552 0-1-.448-1-1s.448-1 1-1zm5 5.096V22c0-.552.448-1 1-1h4.096L18 26.096z"/></symbol><symbol id="icon-login" viewBox="0 0 30 30"><path style="line-height:normal;text-indent:0;text-align:start;text-decoration-line:none;text-decoration-style:solid;text-decoration-color:#000;text-transform:none;block-progression:tb;isolation:auto;mix-blend-mode:normal" d="M15 3C10.346 3 6.308 5.663 4.32 9.545a1 1 0 1 0 1.78.91C7.756 7.22 11.108 5 15 5c5.535 0 10 4.465 10 10s-4.465 10-10 10c-3.892 0-7.244-2.22-8.9-5.455a1 1 0 1 0-1.78.91C6.308 24.337 10.346 27 15 27c6.615 0 12-5.385 12-12S21.615 3 15 3zm-1.01 6.99a1 1 0 0 0-.697 1.717L15.586 14H4a1 1 0 1 0 0 2h11.586l-2.293 2.293a1 1 0 1 0 1.414 1.414l3.912-3.912a1 1 0 0 0-.003-1.592l-3.91-3.91a1 1 0 0 0-.717-.303z" font-weight="400" font-family="sans-serif" white-space="normal" overflow="visible"/></symbol><symbol id="icon-microwave" viewBox="0 0 30 30"><path d="M3 5c-1.105 0-2 .895-2 2v16c0 1.105.895 2 2 2 0 .552.448 1 1 1s1-.448 1-1h20c0 .552.448 1 1 1s1-.448 1-1c1.105 0 2-.895 2-2V7c0-1.105-.895-2-2-2H3zm1 3h18v14H4V8zm22 0c.552 0 1 .448 1 1s-.448 1-1 1-1-.448-1-1 .448-1 1-1zm-15 3c-1.333 0-2.207.793-2.707 1.293-.5.5-.626.707-1.293.707a1 1 0 1 0 0 2c1.333 0 2.207-.793 2.707-1.293.5-.5.626-.707 1.293-.707.667 0 .793.207 1.293.707.5.5 1.374 1.293 2.707 1.293 1.333 0 2.207-.793 2.707-1.293.5-.5.626-.707 1.293-.707a1 1 0 1 0 0-2c-1.333 0-2.207.793-2.707 1.293-.5.5-.626.707-1.293.707-.667 0-.793-.207-1.293-.707-.5-.5-1.374-1.293-2.707-1.293zm15 1c.552 0 1 .448 1 1s-.448 1-1 1-1-.448-1-1 .448-1 1-1zm-15 4c-1.333 0-2.207.793-2.707 1.293-.5.5-.626.707-1.293.707a1 1 0 1 0 0 2c1.333 0 2.207-.793 2.707-1.293.5-.5.626-.707 1.293-.707.667 0 .793.207 1.293.707.5.5 1.374 1.293 2.707 1.293 1.333 0 2.207-.793 2.707-1.293.5-.5.626-.707 1.293-.707a1 1 0 1 0 0-2c-1.333 0-2.207.793-2.707 1.293-.5.5-.626.707-1.293.707-.667 0-.793-.207-1.293-.707-.5-.5-1.374-1.293-2.707-1.293zm15 1c.552 0 1 .448 1 1v3c0 .552-.448 1-1 1s-1-.448-1-1v-3c0-.552.448-1 1-1z"/></symbol><symbol id="icon-more" viewBox="0 0 50 50"><path d="M9 19c-3.31 0-6 2.69-6 6s2.69 6 6 6 6-2.69 6-6-2.69-6-6-6zm16 0c-3.31 0-6 2.69-6 6s2.69 6 6 6 6-2.69 6-6-2.69-6-6-6zm16 0c-3.31 0-6 2.69-6 6s2.69 6 6 6 6-2.69 6-6-2.69-6-6-6z"/></symbol><symbol id="icon-next-page" viewBox="0 0 30 30"><path style="line-height:normal;text-indent:0;text-align:start;text-decoration-line:none;text-decoration-style:solid;text-decoration-color:#000;text-transform:none;block-progression:tb;isolation:auto;mix-blend-mode:normal" d="M9.045 2.984a2 2 0 0 0-1.207 3.643L19.56 15 7.84 23.373a2 2 0 1 0 2.324 3.254l14-10a2 2 0 0 0 0-3.254l-14-10a2 2 0 0 0-1.117-.39z" font-weight="400" font-family="sans-serif" white-space="normal" overflow="visible"/></symbol><symbol id="icon-plus-math" viewBox="0 0 30 30"><path style="line-height:normal;text-indent:0;text-align:start;text-decoration-line:none;text-decoration-style:solid;text-decoration-color:#000;text-transform:none;block-progression:tb;isolation:auto;mix-blend-mode:normal" d="M14.97 2.973A2 2 0 0 0 13 5v8H5a2 2 0 1 0 0 4h8v8a2 2 0 1 0 4 0v-8h8a2 2 0 1 0 0-4h-8V5a2 2 0 0 0-2.03-2.027z" font-weight="400" font-family="sans-serif" white-space="normal" overflow="visible"/></symbol><symbol id="icon-run" viewBox="0 0 30 30"><path style="line-height:normal;text-indent:0;text-align:start;text-decoration-line:none;text-decoration-style:solid;text-decoration-color:#000;text-transform:none;block-progression:tb;isolation:auto;mix-blend-mode:normal" d="M24.5 3A2.5 2.5 0 0 0 22 5.5 2.5 2.5 0 0 0 24.5 8 2.5 2.5 0 0 0 27 5.5 2.5 2.5 0 0 0 24.5 3zm-8.553 1.002a1 1 0 0 0-.142.018l-5 1a1 1 0 0 0 .324 1.972l4.81-.578L17.42 8l-4.295 3.414A2.5 2.5 0 0 0 12 13.5a2.5 2.5 0 0 0 .61 1.633l2.76 3.453L10 19a1 1 0 0 0-.004 0l-.023.002A1 1 0 1 0 10 21h7.44c1.102 0 1.847-1.223 1.404-2.205l.01-.012L17 14.663l3.123-2.472.914 2.08a1 1 0 0 0 .113.257l.006.012h.002A1 1 0 0 0 22 15h4a1 1 0 1 0 .008-2l-3.238-.264-.803-3.63a2.5 2.5 0 0 0-.067-.3l-.002-.003a2.5 2.5 0 0 0-1.11-1.442L16.603 4.2a1 1 0 0 0-.657-.198zM6 9l-1 1h5.686l1.26-1H6zm-3 3v1h6.05c.04-.342.11-.677.227-1H3zm1 3l1 1h4.787c-.213-.315-.392-.647-.52-1H4zm10 8l-1.795 2.393A1 1 0 0 0 12 26a1 1 0 0 0 1 1 1 1 0 0 0 .764-.354h.002a1 1 0 0 1 .002-.003L16.9 23H14z" font-weight="400" font-family="sans-serif" white-space="normal" overflow="visible"/></symbol><symbol id="icon-sand-timer" viewBox="0 0 30 30"><path style="line-height:normal;text-indent:0;text-align:start;text-decoration-line:none;text-decoration-style:solid;text-decoration-color:#000;text-transform:none;block-progression:tb;isolation:auto;mix-blend-mode:normal" d="M7.984 2.986A1 1 0 0 0 7.84 3H6a1 1 0 1 0 0 2h1v2c0 4.612 3.112 7.053 4.465 8C10.112 15.947 7 18.388 7 23v2H6a1 1 0 1 0 0 2h1.832a1 1 0 0 0 .326 0h13.674a1 1 0 0 0 .326 0H24a1 1 0 1 0 0-2h-1v-2c0-4.612-3.112-7.053-4.465-8C19.888 14.053 23 11.612 23 7V5h1a1 1 0 1 0 0-2h-1.846a1 1 0 0 0-.17-.014A1 1 0 0 0 21.84 3H8.154a1 1 0 0 0-.17-.014zM9.09 8h11.82c-.608 3.76-4.424 6.143-4.424 6.143a1 1 0 0 0 0 1.714S20.302 18.24 20.91 22h-2.053c-.446-1.722-1.995-3-3.857-3s-3.41 1.278-3.857 3H9.09c.608-3.76 4.424-6.143 4.424-6.143a1 1 0 0 0 0-1.714S9.698 11.76 9.09 8z" font-weight="400" font-family="sans-serif" white-space="normal" overflow="visible"/></symbol><symbol id="icon-search" viewBox="0 0 50 50"><path d="M21 3C11.602 3 4 10.602 4 20s7.602 17 17 17c3.355 0 6.46-.984 9.094-2.656l12.28 12.28 4.25-4.25L34.5 30.282C36.68 27.423 38 23.88 38 20c0-9.398-7.602-17-17-17zm0 4c7.2 0 13 5.8 13 13s-5.8 13-13 13S8 27.2 8 20 13.8 7 21 7z"/></symbol><symbol id="icon-skip-this-track" viewBox="0 0 30 30"><path d="M7 6a1 1 0 0 0-1 1 1 1 0 0 0 0 .004v15.992A1 1 0 0 0 6 23a1 1 0 0 0 1 1 1 1 0 0 0 .592-.195h.002a1 1 0 0 0 .027-.022l10.92-7.94A1 1 0 0 0 19 15a1 1 0 0 0-.443-.83L7.594 6.195A1 1 0 0 0 7 6zm15.5 0c-.828 0-1.5.672-1.5 1.5v15c0 .828.672 1.5 1.5 1.5s1.5-.672 1.5-1.5v-15c0-.828-.672-1.5-1.5-1.5z"/></symbol><symbol id="icon-star" viewBox="0 0 50 50"><path d="M10.2 48.6c-.2 0-.4-.1-.6-.2-.3-.2-.5-.7-.4-1.1l4.4-16.4L.4 20.2c-.4-.2-.5-.7-.4-1.1.1-.4.5-.7.9-.7l17-.9L24 1.6c.2-.3.6-.6 1-.6s.8.3.9.6L32 17.5l17 .9c.4 0 .8.3.9.7.1.4 0 .8-.3 1.1L36.4 30.9l4.4 16.4c.1.4 0 .8-.4 1.1-.3.2-.8.3-1.1 0L25 39.2l-14.3 9.2c-.2.2-.3.2-.5.2z"/></symbol><symbol id="icon-three-dots-symbol" viewBox="0 0 50 50"><path d="M25 3c-3.3 0-6 2.7-6 6s2.7 6 6 6 6-2.7 6-6-2.7-6-6-6zm0 16c-3.3 0-6 2.7-6 6s2.7 6 6 6 6-2.7 6-6-2.7-6-6-6zm0 16c-3.3 0-6 2.7-6 6s2.7 6 6 6 6-2.7 6-6-2.7-6-6-6z"/></symbol><symbol id="icon-timer-2" viewBox="0 0 50 50"><path d="M25 2C12.297 2 2 12.297 2 25s10.297 23 23 23 23-10.297 23-23S37.703 2 25 2zm0 44C13.42 46 4 36.58 4 25c0-5.527 2.136-10.748 6.015-14.7.387-.396 1.02-.4 1.414-.014.394.387.4 1.02.013 1.414C7.933 15.277 6 20 6 25c0 10.477 8.523 19 19 19s19-8.523 19-19c0-10.14-7.99-18.424-18-18.95V12c0 .552-.447 1-1 1s-1-.448-1-1V5c0-.552.447-1 1-1 11.58 0 21 9.42 21 21s-9.42 21-21 21zM15 15s10.95 6.707 12.12 7.88c1.173 1.17 1.173 3.07 0 4.242-1.17 1.17-3.07 1.172-4.24 0C21.706 25.95 15 15 15 15z"/></symbol><symbol id="icon-timer" viewBox="0 0 50 50"><path d="M21 2v3h2v1.098C12.356 7.108 4 16.096 4 27c0 11.58 9.42 21 21 21s21-9.42 21-21c0-10.904-8.356-19.892-19-20.902V5h2V2h-8zm19.236 3.146L38.23 7.152l4.616 4.616 2.006-2.006-4.616-4.616zM15 16c.256 0 .512.097.707.293l8.78 8.78c.166-.042.335-.073.513-.073 1.105 0 2 .895 2 2 0 .178-.03.347-.074.512l1.78 1.78c.392.392.392 1.024 0 1.415-.194.195-.45.293-.706.293-.256 0-.512-.098-.707-.293l-1.78-1.78c-.166.042-.335.073-.513.073-1.105 0-2-.895-2-2 0-.178.03-.347.074-.512l-8.78-8.78c-.392-.392-.392-1.024 0-1.415.194-.196.45-.293.706-.293z"/></symbol><symbol id="icon-unavailable-cloud" viewBox="0 0 30 30"><path d="M2.707 1.293L1.293 2.707l26 26 1.414-1.414-2.658-2.658C28.352 23.797 30 21.595 30 19c0-2.618-1.68-4.838-4.018-5.658.005-.114.018-.226.018-.342 0-4.418-3.582-8-8-8-3.11 0-5.8 1.78-7.123 4.37-.042-.016-.088-.022-.13-.038l-8.04-8.04zM6.02 10.02c-1.035.785-1.767 1.95-1.952 3.304C1.703 14.13 0 16.364 0 19c0 3.314 2.686 6 6 6h15L6.02 10.02z"/></symbol><symbol id="icon-view-more" viewBox="0 0 30 30"><path d="M15 3C8.373 3 3 8.373 3 15s5.373 12 12 12 12-5.373 12-12S21.627 3 15 3zm0 14c-1.105 0-2-.895-2-2s.895-2 2-2 2 .895 2 2-.895 2-2 2zm7 0c-1.105 0-2-.895-2-2s.895-2 2-2 2 .895 2 2-.895 2-2 2zM8 17c-1.105 0-2-.895-2-2s.895-2 2-2 2 .895 2 2-.895 2-2 2z"/></symbol><symbol id="icon-waiter" viewBox="0 0 30 30"><path d="M8.5 3A3.5 3.5 0 0 0 5 6.5 3.5 3.5 0 0 0 8.5 10 3.5 3.5 0 0 0 12 6.5 3.5 3.5 0 0 0 8.5 3zM23 6a1 1 0 0 0-1 1 1 1 0 0 0 1 1 1 1 0 0 0 1-1 1 1 0 0 0-1-1zm0 2c-1.862 0-3.41 1.278-3.857 3H19c-.552 0-1 .448-1 1s.448 1 1 1h8c.552 0 1-.448 1-1s-.448-1-1-1h-.143C26.41 9.278 24.862 8 23 8zM5.875 12.205c-.78.124-1.403.283-1.875.428V26h10v-7.492l3.395 2.29v-.003a1 1 0 0 0 1.357-.137l3.2-3.658H24a1 1 0 1 0 0-2h-2.047c-.425 0-.835.137-1.174.383l.003-.008L18 17.38 14 13s-1.03-.503-2.875-.795L8.5 21.328l-2.625-9.123z"/></symbol><symbol id="icon-walk" viewBox="0 0 30 30"><path d="M16.5 3A2.5 2.5 0 0 0 14 5.5 2.5 2.5 0 0 0 16.5 8 2.5 2.5 0 0 0 19 5.5 2.5 2.5 0 0 0 16.5 3zm-2.002 6c-.396 0-.765.102-1.098.266a1 1 0 0 0-.146.058L9.338 11.2a1 1 0 0 0-.48.488L7.09 15.585a1 1 0 1 0 1.82.828l1.447-3.19 1.295-.388c-.266 1.405-.598 3.146-.6 3.154V16c-.034.162-.052.33-.052.5 0 .77.357 1.45.906 1.91l.008.024 3.893 3.066 1.113 4.195.1.5A1 1 0 0 0 18 27a1 1 0 0 0 1-1 1 1 0 0 0-.02-.195V25.8a1 1 0 0 0-.003-.01l-.997-4.985a1 1 0 0 0-.16-.377l-1.87-3.424v-.027l.984-4.915h-.002c.04-.182.068-.37.068-.562 0-1.38-1.12-2.5-2.502-2.5zm3.887 3.742l-.47 2.266.417.373c.075.07.162.126.254.167l3 1.363v-.002A1 1 0 0 0 22 17a1 1 0 0 0 1-1 1 1 0 0 0-.586-.908v-.002l-2.86-1.3-1.17-1.048zm-7.428 6.983l-.514 1.697-2.228 3.94-.074.124.003.002a1 1 0 0 0-.034.063l-.008.012A1 1 0 0 0 8 26a1 1 0 0 0 1 1 1 1 0 0 0 .81-.412l.016-.024a1 1 0 0 0 .002-.003l3.326-5.048-2.197-1.787z"/></symbol><symbol id="icon-warn" viewBox="0 0 30 30"><path d="M15 3c-.832 0-1.544.507-1.846 1.23L2.3 22.946v.002A2 2 0 0 0 2 24a2 2 0 0 0 2 2 2 2 0 0 0 .14-.006l.005.006h21.71l.004-.008A2 2 0 0 0 26 26a2 2 0 0 0 2-2 2 2 0 0 0-.3-1.053l-.016-.027a2 2 0 0 0-.002-.002L16.846 4.228C16.544 3.51 15.832 3 15 3zm-1.213 8.36h2.426l-.2 6.472h-2.025l-.2-6.473zm1.217 8.45c.822 0 1.314.443 1.314 1.198 0 .74-.492 1.18-1.314 1.18-.828 0-1.324-.44-1.324-1.18 0-.755.495-1.197 1.324-1.197z"/></symbol><symbol id="icon-x-button" viewBox="0 0 30 30"><path d="M7 4c-.256 0-.512.097-.707.293l-2 2c-.39.39-.39 1.024 0 1.414L11.586 15l-7.293 7.293c-.39.39-.39 1.024 0 1.414l2 2c.39.39 1.024.39 1.414 0L15 18.414l7.293 7.293c.39.39 1.024.39 1.414 0l2-2c.39-.39.39-1.024 0-1.414L18.414 15l7.293-7.293c.39-.39.39-1.024 0-1.414l-2-2c-.39-.39-1.024-.39-1.414 0L15 11.586 7.707 4.293C7.512 4.097 7.257 4 7 4z"/></symbol></defs></svg>