<?xml version="1.0" standalone="no"?>
<!DOCTYPE svg PUBLIC "-//W3C//DTD SVG 1.1//EN" "http://www.w3.org/Graphics/SVG/1.1/DTD/svg11.dtd" >
<!--
2018-9-26: Created.
-->
<svg xmlns="http://www.w3.org/2000/svg">
<metadata>
Created by FontForge 20120731 at Wed Sep 26 21:20:29 2018
 By icons8

</metadata>
<defs>
<font id="Food2" horiz-adv-x="512" >
  <font-face 
    font-family="Food2"
    font-weight="500"
    font-stretch="normal"
    units-per-em="512"
    panose-1="2 0 6 3 0 0 0 0 0 0"
    ascent="448"
    descent="-64"
    bbox="-0.00543547 -64 512 448.242"
    underline-thickness="25.6"
    underline-position="-51.2"
    unicode-range="U+0020-F127"
  />
    <missing-glyph />
    <glyph glyph-name="space" unicode=" " horiz-adv-x="200" 
 />
    <glyph glyph-name="watermelon" unicode="&#xf118;" 
d="M362 413.866l0.228516 0.00195312c3.90332 0 9.31152 -2.24023 12.0713 -5.00195c92.4189 -92.418 92.4209 -242.765 0 -335.166c-92.418 -92.4189 -242.765 -92.4209 -335.166 0c-2.75879 2.75879 -4.99707 8.16504 -4.99707 12.0664s2.23828 9.30762 4.99707 12.0664
l311.033 311.033c2.70508 2.70703 8.00684 4.94727 11.833 5zM359.8 370.233l-24.0996 -24.0996c53.207 -65.2939 49.4131 -161.555 -11.4336 -222.4c-60.8457 -60.8467 -157.106 -64.6406 -222.4 -11.4336l-24.0996 -24.0996c79.79 -66.9834 197.31 -65.457 272.4 9.63281
c75.0898 75.0752 76.6221 192.596 9.63281 272.4zM307.2 311.467c-3.51172 0 -6.58594 -1.31348 -9.2998 -3.13379l-4.63379 -4.63281c-1.82031 -2.71387 -3.13281 -5.78906 -3.13281 -9.2998c0 -9.4209 7.64551 -17.0674 17.0664 -17.0674s17.0664 7.64648 17.0664 17.0674
c0 9.41992 -7.64551 17.0664 -17.0664 17.0664zM324.267 243.2c-9.4209 0 -17.0664 -7.64648 -17.0664 -17.0664c0 -9.4209 7.64551 -17.0674 17.0664 -17.0674s17.0664 7.64648 17.0664 17.0674c0 9.41992 -7.64551 17.0664 -17.0664 17.0664zM290.134 174.934
c-9.4209 0 -17.0674 -7.64648 -17.0674 -17.0674c0 -9.41992 7.64648 -17.0664 17.0674 -17.0664c9.41992 0 17.0664 7.64648 17.0664 17.0664c0 9.4209 -7.64648 17.0674 -17.0664 17.0674zM153.6 157.866c-3.51074 0 -6.58594 -1.3125 -9.2998 -3.13281l-4.63281 -4.63379
c-1.82031 -2.71387 -3.13379 -5.78809 -3.13379 -9.2998c0 -9.4209 7.64648 -17.0664 17.0664 -17.0664c9.4209 0 17.0674 7.64551 17.0674 17.0664s-7.64648 17.0664 -17.0674 17.0664zM221.866 140.8c-9.41992 0 -17.0664 -7.64551 -17.0664 -17.0664
s7.64648 -17.0664 17.0664 -17.0664c9.4209 0 17.0674 7.64551 17.0674 17.0664s-7.64648 17.0664 -17.0674 17.0664z" />
    <glyph glyph-name="cheese" unicode="&#xf11d;" 
d="M426.667 209.066c0 -28.2793 22.9199 -51.2002 51.2002 -51.2002v-85.333c0 -18.8242 -15.3096 -34.1328 -34.1338 -34.1328h-307.2c-46.3867 0 -102.399 60.8936 -102.399 136.533v102.399c0 3.41406 1.02344 6.74121 2.93457 9.5752
c18.8418 27.8525 78.1318 70.127 131.857 75.6729c1.22852 0.120117 2.49219 0.136719 3.7373 -0.0341797l290.134 -34.1328c8.60156 -1.00684 15.0703 -8.29492 15.0703 -16.9473v-51.2002c-28.2803 0 -51.2002 -22.9209 -51.2002 -51.2002zM75.4346 279.348
l299.845 24.9854l-204.646 24.0811c-33.9805 -4.21582 -74.3252 -28.7061 -95.1982 -49.0664zM136.533 157.866c18.8584 0 34.1338 15.2754 34.1338 34.1338s-15.2754 34.1338 -34.1338 34.1338s-34.1328 -15.2754 -34.1328 -34.1338s15.2744 -34.1338 34.1328 -34.1338z
M264.533 72.5332c23.5693 0 42.667 19.0977 42.667 42.667s-19.0977 42.666 -42.667 42.666s-42.667 -19.0967 -42.667 -42.666s19.0977 -42.667 42.667 -42.667zM349.867 209.066c14.1309 0 25.5996 11.4688 25.5996 25.6006c0 14.1309 -11.4688 25.5996 -25.5996 25.5996
c-14.1318 0 -25.6006 -11.4688 -25.6006 -25.5996c0 -14.1318 11.4688 -25.6006 25.6006 -25.6006zM401.066 89.5996c14.1318 0 25.6006 11.4688 25.6006 25.6006c0 14.1309 -11.4688 25.5996 -25.6006 25.5996c-14.1309 0 -25.5996 -11.4688 -25.5996 -25.5996
c0 -14.1318 11.4688 -25.6006 25.5996 -25.6006z" />
    <glyph glyph-name="cheeseburger" unicode="&#xf10d;" 
d="M256 396.8c140.8 0 187.733 -75.4512 187.733 -85.333s-7.64551 -17.0664 -17.0664 -17.0664h-341.334c-9.4209 0 -17.0664 7.64551 -17.0664 17.0664c0 15.4277 46.9336 85.333 187.733 85.333zM85.333 260.267h105.667c30.874 0 133.267 -68.2666 133.267 -68.2666
h-238.934c-18.8584 0 -34.1328 15.2744 -34.1328 34.1338c0 18.8584 15.2744 34.1328 34.1328 34.1328zM324.267 192l63.167 68.2666h39.2334c18.8584 0 34.1328 -15.2744 34.1328 -34.1328c0 -18.8594 -15.2744 -34.1338 -34.1328 -34.1338h-102.4zM68.2666 157.866
h375.467l0.241211 0.00195312c9.42188 0 17.0684 -7.64648 17.0684 -17.0684s-7.64648 -17.0684 -17.0684 -17.0684c-0.0664062 0 -0.174805 0.000976562 -0.241211 0.00195312h-375.467c-0.0664062 -0.000976562 -0.174805 -0.00195312 -0.241211 -0.00195312
c-9.42188 0 -17.0684 7.64648 -17.0684 17.0684s7.64648 17.0684 17.0684 17.0684zM85.333 89.5996h341.334c9.4209 0 17.0664 -7.64551 17.0664 -17.0664v-17.0664c0 -18.8584 -15.2744 -34.1338 -34.1338 -34.1338h-307.199c-18.8594 0 -34.1338 15.2754 -34.1338 34.1338
v17.0664c0 9.4209 7.64551 17.0664 17.0664 17.0664z" />
    <glyph glyph-name="slice-of-bread-outline" unicode="&#xf113;" 
d="M256 379.733c42.8477 0 90.3057 -1.51465 128.533 -7.9668c19.1143 -3.22559 35.8975 -7.47949 49.667 -14.6328c13.7695 -7.1543 26.5996 -19.9961 26.5996 -37.1338c0 -18.1533 -9.14258 -27.8086 -17.0664 -33.9004v-247.699
c0 -18.6553 -15.4785 -34.1338 -34.1338 -34.1338h-307.199c-18.6553 0 -34.1338 15.4785 -34.1338 34.1338v247.733c-8.00195 6.17285 -17.0664 15.8535 -17.0664 33.8662c0 17.1377 12.8301 29.9795 26.5996 37.1338c13.7695 7.15332 30.5527 11.4072 49.667 14.6328
c38.2275 6.45215 85.6855 7.9668 128.533 7.9668zM256 345.6c-41.9912 0 -88.4043 -1.68945 -122.833 -7.5c-17.2148 -2.90527 -31.459 -7.01855 -39.6338 -11.2666c-8.1748 -4.24707 -8.2002 -5.82812 -8.2002 -6.83301c0 -7.49219 6.80078 -9.93359 6.80078 -9.93359
c5.66699 -2.46191 10.2666 -9.47559 10.2666 -15.6543v-0.0117188v-256h256c18.8242 0 34.1328 15.3086 34.1328 34.1328v218.566s17.0664 6.59766 17.0664 22.3672c0 13.1973 -29.9375 24.1543 -70.6328 29.167c-26.5889 2.10938 -55.5908 2.96582 -82.9668 2.96582z
M196.267 277.333c14.1309 0 25.5996 -11.4688 25.5996 -25.5996s-11.4688 -25.5996 -25.5996 -25.5996s-25.5996 11.4688 -25.5996 25.5996s11.4688 25.5996 25.5996 25.5996zM307.2 209.066c9.4209 0 17.0664 -7.64551 17.0664 -17.0664
s-7.64551 -17.0664 -17.0664 -17.0664s-17.0664 7.64551 -17.0664 17.0664s7.64551 17.0664 17.0664 17.0664zM204.8 140.8c9.4209 0 17.0664 -7.64551 17.0664 -17.0664s-7.64551 -17.0664 -17.0664 -17.0664s-17.0664 7.64551 -17.0664 17.0664
s7.64551 17.0664 17.0664 17.0664z" />
    <glyph glyph-name="sushi" unicode="&#xf115;" 
d="M435.2 413.866c14.1309 0 25.5996 -11.4688 25.5996 -25.5996c-0.0078125 -10.4561 -8.13184 -21.417 -18.1328 -24.4668l-116.634 -56.9668c-8.95996 12.6299 -21.5498 23.5781 -37.2002 32.334l133.834 71.3662c3.21777 1.82617 8.83301 3.31934 12.5332 3.33301z
M187.733 328.533c30.583 0 58.3965 -5.98145 80.0332 -16.7998s39.4336 -28.1045 39.4336 -51.4668v-32.0332l168.2 63.6328c2.87793 1.38574 7.80566 2.52051 11 2.53418c14.1309 0 25.5996 -11.4688 25.5996 -25.6006
c-0.0195312 -11.0938 -8.78516 -22.2188 -19.5664 -24.833l-452.533 -153.367c-1.89453 -0.682617 -3.85547 -1 -5.7666 -1c-6.99805 0 -13.5586 4.33691 -16.0674 11.3008c-3.17383 8.85742 1.42578 18.6416 10.2998 21.833l39.9004 15.0996v43.1006l-43.5664 -21.2666
c-2.44043 -1.21191 -5.04004 -1.80078 -7.60059 -1.80078c-6.2627 0 -12.3125 3.45996 -15.2998 9.43359c-4.21484 8.43066 -0.797852 18.6846 7.63379 22.9004l58.833 31.3662v38.7002c0 23.3623 17.7969 40.6484 39.4336 51.4668s49.4502 16.7998 80.0332 16.7998z
M187.733 294.4c-25.9707 0 -49.3418 -5.48828 -64.7666 -13.2002c-15.4248 -7.71289 -20.5664 -16.0186 -20.5664 -20.9336s5.1416 -13.2207 20.5664 -20.9336c15.4248 -7.71191 38.7959 -13.1992 64.7666 -13.1992s49.3418 5.4873 64.7666 13.1992
c15.4248 7.71289 20.5664 16.0186 20.5664 20.9336s-5.1416 13.2207 -20.5664 20.9336c-15.4248 7.71191 -38.7959 13.2002 -64.7666 13.2002zM187.733 270.934c11.7764 0 21.333 -4.7793 21.333 -10.667s-9.55664 -10.667 -21.333 -10.667s-21.333 4.7793 -21.333 10.667
s9.55664 10.667 21.333 10.667zM307.2 145.733v-56.1338c0 -38.9121 -51.3711 -68.2666 -119.467 -68.2666c-53.7773 0 -96.9785 18.3369 -112.833 45.2002z" />
    <glyph glyph-name="leaf-outline" unicode="&#xf120;" 
d="M256.267 396.8c26.709 0 31.3027 -27.9824 49.667 -28c14.6943 0 26.1953 -4.1748 34.9336 -10.2334c4.19824 -3.19141 6.80469 -5.53809 8.69922 -7.4668c-13.4141 -9.59082 -24.2402 -24.6348 -30.333 -43.7666
c-0.0341797 -0.0166016 -0.0654297 -0.0488281 -0.0996094 -0.0664062c-15.0703 -11.3496 -29 -26.9805 -29 -64.0664c0 -5.29102 -0.5 -7.06543 -0.5 -7.13379c-0.222656 -0.306641 -0.69043 -0.983398 -1.13379 -1.7002
c-8.14062 -12.7998 -15.4336 -27.6484 -15.4336 -68.2324c0 -8.22656 -3.90039 -13.6553 -15.9668 -28.4004l-1.13281 -1.40039c-0.324219 0.410156 -0.642578 0.824219 -0.966797 1.2334c-12.1348 14.8486 -16.0664 20.3066 -16.0664 28.5674
c0 40.5674 -7.27637 55.4326 -15.4004 68.2324c-0.443359 0.700195 -0.907227 1.34961 -1.2998 2.10059c0.0507812 0 -0.367188 1.90332 -0.367188 6.7334c0 37.0859 -13.9297 52.7334 -29 64.0996c-0.0332031 0.0175781 -0.0654297 0.0498047 -0.0996094 0.0664062
c-6.38281 20.0195 -17.9316 35.6113 -32.2334 45.1006c3.20898 2.69629 6.47559 5.12207 9.66699 7c7.38965 5.22266 17.1807 9.36621 30.0996 9.36621c29.0645 0 31.9883 27.9668 55.9668 27.9668zM128 328.533c13.7559 0 27.0801 -13.3047 32.9004 -33.7334
c5.81934 -20.4287 26.833 -10.6572 26.833 -51.5996c0 -36.8467 17.0664 -16.5146 17.0664 -77.0664c0 -24.5938 14.583 -38.4189 30.2666 -58.2676c-12.083 -19.4219 -23.3076 -45.4395 -27.9668 -82.833c-16.042 12.1172 -41.4072 9.11133 -56.7334 18.5996
c-23.6709 14.6611 -16.5615 34.2129 -47.333 57.1338c-35.3623 28.5693 -14.668 43.9404 -30.2666 74.2002c-6.43359 12.5098 -21.5664 27.5117 -21.5664 51.167c0 33.9619 23.9766 45.6777 31.3662 54.4326c13.5166 16.0254 14.3037 47.9668 45.4336 47.9668zM384 328.533
c31.1299 0 31.917 -31.9414 45.4336 -47.9668c7.38965 -8.75488 31.3662 -20.4707 31.3662 -54.4326c0 -23.6553 -15.1318 -38.6572 -21.5664 -51.167c-15.5986 -30.2598 5.0957 -45.6309 -30.2666 -74.2002c-30.7715 -22.9209 -23.6621 -42.4727 -47.333 -57.1338
c-23.6719 -14.6602 -71.5 0.740234 -71.5 -56.4326h-51.2002c0 123.323 68.2666 125.72 68.2666 178.934c0 60.5518 17.0664 40.2197 17.0664 77.0664c0 40.9424 21.0137 31.1709 26.833 51.5996c5.82031 20.4287 19.1445 33.7334 32.9004 33.7334z" />
    <glyph glyph-name="vegan-food" unicode="&#xf102;" 
d="M256.566 413.6c41.6777 2.30371 79.668 -22.834 109.834 -53l46.5 -51.166l-36.2002 -36.2002c-56.4912 -52.5479 -156.901 -60.332 -193.101 -24.1338c-4.91504 4.91602 -9.30762 9.83496 -13.2334 14.7666c32.9561 15.8213 69.0293 23.915 109.034 24
c9.4375 0.0175781 17.0498 7.66211 17.0332 17.1006c-0.0175781 9.4375 -7.67969 17.0498 -17.1006 17.0332c-30.0049 -0.0566406 -74.0742 -9.32129 -101.733 -14.9336c-0.538086 -0.172852 -1.13184 -0.324219 -1.66602 -0.5
c-42.9512 -14.0928 -65.5674 -34.0996 -65.5674 -34.0996c-2.66602 -2.33398 -7.70605 -4.22852 -11.25 -4.22852c-9.42676 0 -17.0781 7.65039 -17.0781 17.0781c0 4.27637 2.61133 10.0332 5.82812 12.8506c0 0 24.4697 21.0039 66.5674 36.8662
c3.45898 13.0957 10.5566 26.8896 24 39.9336c26.7969 25.9971 53.126 37.251 78.1328 38.6328zM68.2666 192h375.467l0.241211 0.00195312c9.42188 0 17.0684 -7.64648 17.0684 -17.0684s-7.64648 -17.0684 -17.0684 -17.0684l-0.241211 0.000976562h-0.133789
c0 -58.1543 -36.4336 -107.688 -87.666 -127.366c1.47363 -2.31543 2.66992 -6.42188 2.66992 -9.16602c0 -9.42188 -7.64648 -17.0684 -17.0684 -17.0684c-0.0556641 0 -0.146484 0 -0.202148 0.000976562h-170.666
c-0.0625 -0.000976562 -0.164062 -0.000976562 -0.226562 -0.000976562c-9.42188 0 -17.0684 7.64648 -17.0684 17.0684c0 2.7207 1.17773 6.79688 2.62793 9.09961c-51.333 19.626 -87.8662 69.2041 -87.8662 127.433h-0.166016
c-9.42188 0 -17.0684 7.64648 -17.0684 17.0684s7.64648 17.0684 17.0684 17.0684z" />
    <glyph glyph-name="carrot" unicode="&#xf11b;" 
d="M238.667 448.233l0.266602 0.00195312c9.42188 0 17.0684 -7.64648 17.0684 -17.0684l-0.00195312 -0.233398v-51.2002l0.00195312 -0.241211c0 -9.42188 -7.64648 -17.0684 -17.0684 -17.0684s-17.0684 7.64648 -17.0684 17.0684l0.000976562 0.241211v51.2002
l-0.000976562 0.233398c0 9.27539 7.52734 16.9209 16.8018 17.0664zM344.367 431.066c9.19727 -0.217773 16.6631 -7.8623 16.6631 -17.0635c0 -5.48047 -3.86621 -12.127 -8.62988 -14.8359c0 0 -27.9453 -17.3398 -36.4336 -46.5
c-3.34961 -11.5137 -7.78027 -23.5771 -14.1338 -34.8672c21.2686 -9.13184 39.5 -26.0088 39.5 -57.5332c0 -5.20508 -0.239258 -10.9395 -0.666016 -17.0664h-50.5332c-9.4209 0 -17.0674 -7.62891 -17.0674 -17.0664c0 -9.43848 7.64648 -17.0674 17.0674 -17.0674
h46.6992c-3.07129 -21.0771 -7.56934 -44.4893 -13.1328 -68.3994c-9.14746 -0.324219 -16.5 -7.71777 -16.5 -16.9336c0 -6.28027 3.58105 -11.5479 8.63281 -14.5c-21.3838 -80.1797 -52.2891 -156.167 -76.8994 -156.167c-18.9443 0 -41.6006 45.0908 -60.7998 102.4
h9.59961c9.4209 0 17.0664 7.62891 17.0664 17.0664s-7.64551 17.0664 -17.0664 17.0664h-20.2334c-8.1748 28.2627 -15.291 57.7715 -20.6338 85.334h6.7334c9.4209 0 17.0674 7.62891 17.0674 17.0664s-7.64648 17.0664 -17.0674 17.0664h-12.5664
c-2.86719 19.627 -4.5 37.2393 -4.5 51.2002c0 68.2666 85.333 68.2666 102.4 68.2666c4.8877 0 15.5869 -0.195312 28.0664 -1.7998c6.75586 9.02539 12.2793 21.9893 16.2002 35.4668c12.9131 44.3623 51.8994 66.3662 51.8994 66.3662
c2.2627 1.38281 6.24902 2.50391 8.90039 2.50391zM135.934 431.033l0.397461 0.00488281c2.29102 0 5.80078 -0.853516 7.83594 -1.9043c0 0 41.7002 -19.4775 49.666 -63.4336c0.223633 -1.00684 0.404297 -2.66113 0.404297 -3.69238
c0 -9.42188 -7.64648 -17.0684 -17.0684 -17.0684c-8.19043 0 -15.7627 6.58301 -16.9023 14.6943c-4.35645 24.0371 -31.3662 38.9658 -31.3662 38.9658c-5.32422 2.57227 -9.64551 9.45703 -9.64551 15.3701c0 9.20801 7.47168 16.8525 16.6787 17.0635z" />
    <glyph glyph-name="piece-of-lemon-cake" unicode="&#xf127;" 
d="M171.2 362.667c0.942383 -0.0361328 2.4502 -0.245117 3.36621 -0.466797l290.134 -68.2666c7.26074 -1.70508 13.1592 -9.1416 13.167 -16.6006v-204.8c0 -18.6553 -15.4785 -34.1328 -34.1338 -34.1328h-375.467c-18.6553 0 -34.1328 15.4775 -34.1328 34.1328v204.8
c0 2.88867 1.31348 7.1748 2.93262 9.56738c11.1963 16.5615 30.5088 32.7158 53.9336 46.9326c23.4248 14.2178 50.6504 25.9219 77.9004 28.7334c0.519531 0.0585938 1.36621 0.105469 1.88965 0.105469zM170.866 328.033
c-19.2832 -2.33203 -42.3535 -11.3613 -62.1328 -23.3662c-14.5332 -8.82129 -26.3896 -18.9307 -34.333 -27.334h311.833zM68.2666 140.8v-34.1328h375.467v34.1328h-375.467z" />
    <glyph glyph-name="soy" unicode="&#xf109;" 
d="M413.304 396.8c29.0986 0 48.6914 -50.5176 48.6914 -115.166c0 -78.5918 -65.5879 -118.903 -65.5879 -118.903c-2.25293 -35.7549 -27.2041 -115.183 -138.239 -122.675c0 0 -39.9189 -52.8555 -115.61 -52.8555c-58.4697 0 -91.3574 15.001 -91.3574 34.1328
c0 96.0684 99.6182 132.421 119.467 136.533c10.1543 52.7021 54.6475 103.852 119.467 110.934c8.78906 79.8379 86.5615 128 123.17 128zM163.516 38.3145c16.6396 11.8789 23.1084 31.3516 14.4385 43.5205c-8.66992 12.1514 -29.2012 12.3896 -45.8408 0.52832
c-16.6406 -11.8779 -23.1084 -31.3506 -14.4385 -43.5195s29.2012 -12.4072 45.8408 -0.529297zM322.116 125.884c22.084 22.084 25.668 54.3232 8.00391 71.9697c-17.6631 17.6475 -49.8857 14.0801 -71.9697 -8.00391s-25.668 -54.3066 -8.00391 -71.9697
c17.6641 -17.6475 49.8857 -14.0801 71.9697 8.00391zM410.829 281.122c8.7041 22.6982 2.20117 46.2168 -14.5068 52.5312s-37.3252 -6.96289 -46.0293 -29.6621c-8.70312 -22.6982 -2.20117 -46.2158 14.5068 -52.5312c16.708 -6.31445 37.3252 6.96387 46.0293 29.6621z
" />
    <glyph glyph-name="olive-oil" unicode="&#xf126;" 
d="M238.934 413.866h34.1328c9.4209 0 17.0674 -7.64551 17.0674 -17.0664h17.0664l0.241211 0.00195312c9.42188 0 17.0684 -7.64648 17.0684 -17.0684s-7.64648 -17.0684 -17.0684 -17.0684l-0.241211 0.00195312v-89.8008c0 -3.26953 1.17383 -6.77148 3.13281 -10.4326
c8.41211 28.1738 34.3477 49.0332 65.1338 49.0332c37.5 0 68.2666 -30.7666 68.2666 -68.2666c0 -33.3027 -24.3037 -61.1514 -56 -67c12.7783 -19.2969 21.8662 -41.9111 21.8662 -69.5332c0 -43.9814 -19.0215 -85.9824 -52.1992 -115.2
c-3.10645 -2.74805 -7.15332 -4.2666 -11.3008 -4.2666h-180.199c-4.14746 0 -8.16113 1.50293 -11.2666 4.2334c-33.1953 29.2354 -52.2334 71.2354 -52.2334 115.233c0 56.4902 37.7549 92.4395 68.0996 121.333c17.6299 16.7764 34.2998 32.6299 34.2998 44.8662v89.8008
l-0.241211 -0.00195312c-9.42188 0 -17.0684 7.64648 -17.0684 17.0684s7.64648 17.0684 17.0684 17.0684l0.241211 -0.00195312h17.0664c0 9.4209 7.64648 17.0664 17.0674 17.0664zM238.934 311.467v-38.6006c0 -26.8623 -21.8086 -47.6182 -44.9004 -69.5996
c-28.2793 -26.9141 -57.5 -54.7529 -57.5 -96.5996c0 -21.5039 5.91406 -42.374 16.7002 -60.5674c2.83301 -4.79492 8.00293 -7.69922 13.5664 -7.69922c11.5547 0 19.0127 11.9365 14.2334 22.4658c-5.87109 12.9365 -10.3662 28.4775 -10.3662 45.8008
c0 7.23633 1.10352 14.4941 2.36621 20.4326c1.68945 7.9707 8.59277 13.7002 16.7334 13.7002h178.367c-10.3428 23.9785 -30.2246 43.1475 -49.834 61.7666c-23.2617 22.085 -45.2334 42.9258 -45.2334 70.2998v38.6006h-34.1328zM375.467 277.333
c-19.0537 0 -34.1338 -15.0791 -34.1338 -34.1328s15.0801 -34.1338 34.1338 -34.1338s34.1328 15.0801 34.1328 34.1338s-15.0791 34.1328 -34.1328 34.1328z" />
    <glyph glyph-name="food-basket" unicode="&#xf101;" 
d="M307.2 430.934h51.2002c9.4209 0 17.0664 -7.64648 17.0664 -17.0674c0 -6.20117 -3.48145 -11.4111 -8.43359 -14.3994l27.9668 -46.6006c9.54004 -15.9053 14.5996 -34.1309 14.5996 -52.6992v-5.7666h-153.6v5.7666c0 18.5508 5.04297 36.7939 14.5996 52.6992
l27.9668 46.6006c-4.95215 2.98828 -8.43262 8.19824 -8.43262 14.3994c0 9.4209 7.64551 17.0674 17.0664 17.0674zM213.333 379.733c10.5479 0 20.2988 -2.9707 28.9004 -7.7666l-0.900391 -1.56641c-7.06543 -11.7598 -12.0908 -24.5068 -15.333 -37.7334
l-50.2002 33.4668c10.291 8.37891 23.2314 13.5996 37.5332 13.5996zM129.033 354.333c2.43848 -0.379883 4.86133 -1.26562 7.06641 -2.7334l85.7666 -57.1992h-136.533l25.2002 50.3994c3.55859 7.11719 11.1855 10.6729 18.5 9.5332zM51.2002 260.267h409.6
c9.4209 0 17.0674 -7.64551 17.0674 -17.0664v-34.1338c0 -9.4209 -7.64648 -17.0664 -17.0674 -17.0664h-2.83301l-26.5664 -159.2c-2.74805 -16.4521 -16.9756 -28.5332 -33.667 -28.5332h-283.5c-16.6738 0 -30.9189 12.0811 -33.667 28.5332l-26.5332 159.2h-2.83301
c-9.4209 0 -17.0664 7.64551 -17.0664 17.0664v34.1338c0 9.4209 7.64551 17.0664 17.0664 17.0664zM187.733 192c-9.4375 0 -17.0664 -7.62891 -17.0664 -17.0664v-102.4c0 -9.4375 7.62891 -17.0664 17.0664 -17.0664s17.0664 7.62891 17.0664 17.0664v102.4
c0 9.4375 -7.62891 17.0664 -17.0664 17.0664zM256 192c-9.4375 0 -17.0664 -7.62891 -17.0664 -17.0664v-102.4c0 -9.4375 7.62891 -17.0664 17.0664 -17.0664s17.0664 7.62891 17.0664 17.0664v102.4c0 9.4375 -7.62891 17.0664 -17.0664 17.0664zM324.267 192
c-9.4375 0 -17.0664 -7.62891 -17.0664 -17.0664v-102.4c0 -9.4375 7.62891 -17.0664 17.0664 -17.0664s17.0664 7.62891 17.0664 17.0664v102.4c0 9.4375 -7.62891 17.0664 -17.0664 17.0664z" />
    <glyph glyph-name="prawn" unicode="&#xf106;" 
d="M187.733 396.8c9.4209 0 17.0664 -7.64551 17.0664 -17.0664s-7.64551 -17.0664 -17.0664 -17.0664s-17.0664 7.64551 -17.0664 17.0664s7.64551 17.0664 17.0664 17.0664zM256 396.8h153.6c37.502 0 68.2676 -30.7656 68.2676 -68.2666
c-0.00976562 -1.87598 -0.606445 -4.80371 -1.33398 -6.5332c-3.47266 -34.3252 -31.7432 -61.7334 -66.9336 -61.7334c0 -65.9795 -53.4863 -119.467 -119.466 -119.467h-67.9336c-28.5527 0 -51.6436 -23.3779 -51.2002 -52.0332
c0.443359 -27.75 25.2832 -50.3662 53.0332 -50.3662h83.167c0 18.8584 15.2744 34.1328 34.1328 34.1328h85.334c9.4209 0 17.0664 -7.64551 17.0664 -17.0664v-17.0664c0 -28.2803 -22.9209 -51.2002 -51.2002 -51.2002c0 0 -35.8076 0.227539 -74.5996 0.466797
c-5.23926 0.0341797 -10.3438 2.70703 -12.7334 7.36621c-2.81641 5.47852 -8.47949 9.2334 -15.0664 9.2334c-6.48535 0 -12.0508 -3.6416 -14.9004 -8.9668c-2.49219 -4.6416 -7.59277 -7.30078 -12.8672 -7.2666c-19.7461 0.119141 -35.0195 0.216797 -39.1328 0.233398
c-3.32812 0 -6.59082 0.0800781 -9.83301 0.233398c-4.45508 0.205078 -8.76953 2.58984 -10.8008 6.56641c-2.78125 5.46191 -8.3125 9.2002 -14.8662 9.2002c-4.72754 0 -8.96094 -1.94434 -12.0332 -5.0332c-2.9873 -3.03809 -7.48828 -3.97754 -11.5664 -2.7998
c-16.8115 4.88086 -33.2217 12.127 -45.834 20.1992c-3.85645 2.45801 -5.30762 7.62695 -2.83301 11.4668c6.51953 10.1035 3.28613 21.2754 -6.06641 25.9004c-6.82715 3.37891 -13.1621 0.825195 -17.6338 -2.36719
c-4.23242 -3.02051 -10.1611 -2.16504 -13.2334 2.03418c-11.6055 15.9053 -19.7852 34.2744 -23.9668 54.5664c-1.6377 8.00391 4.47559 15.5 12.6338 15.5h1.06641c10.5645 0 18.8672 9.56055 16.7334 20.5c-1.58691 8.10645 -9.20605 13.6328 -17.4668 13.6328
c-8.22559 0 -14.375 7.62891 -12.5996 15.667c3.10547 13.9268 8.19238 27.082 14.8994 39.2334c3.8916 7.04883 13.4834 8.31641 19.167 2.63379l1.33301 -1.33398c3.32812 -3.32812 7.69824 -5 12.0674 -5c4.0957 0 8.22363 1.46484 11.4658 4.40039
c7.30469 6.62207 6.93066 18.4033 -0.0332031 25.3662l-3.7666 3.7666c-5.23926 5.22266 -4.53711 13.7949 1.33398 18.3008c27.46 21.043 61.9736 33.5 98.6328 33.5h165.434h34.1328c19.0586 0 34.1338 15.0752 34.1338 34.1328s-15.0752 34.1338 -34.1338 34.1338h-153.6
l-0.241211 -0.00195312c-9.42188 0 -17.0684 7.64648 -17.0684 17.0684s7.64648 17.0684 17.0684 17.0684zM326.5 260.267c-14.1484 0 -25.5996 -11.4688 -25.5996 -25.5996c0 -14.1318 11.4688 -25.6006 25.5996 -25.6006s25.5996 11.4688 25.5996 25.6006
c0 14.1309 -11.4688 25.5996 -25.5996 25.5996z" />
    <glyph glyph-name="ham" unicode="&#xf114;" 
d="M392.533 413.866c23.3975 0 40.166 -17.5635 46.167 -39.166c21.6025 -6.00098 39.167 -22.7695 39.167 -46.167c0 -28.0742 -23.126 -51.2002 -51.2002 -51.2002c-7.4209 0 -12.7168 5.05176 -19.1338 7.93359l-36.166 -36.167
c13.415 -64.3691 -25.3438 -165.54 -65.001 -220.1c-4.94141 -8.22754 -10.8672 -15.9678 -17.9326 -23.0332c-53.6162 -53.6182 -145.336 -45.3955 -204.601 13.8662c-59.2646 59.2627 -67.4824 150.982 -13.8662 204.601c2.03027 2.03027 4.19727 3.8125 6.33301 5.66602
l-0.0996094 -0.0332031c53.7773 53.7939 218.095 115.855 275.899 58.0332c1.67285 -1.67285 3.20117 -3.47949 4.66699 -5.33301l33.7002 33.7002c2.75879 2.75781 8.16504 4.99609 12.0664 4.99609s9.30762 -2.23828 12.0664 -4.99609
c3.11133 -3.11133 7.26367 -5 12.0674 -5c9.64258 0 17.0664 7.42383 17.0664 17.0664c0 9.64355 -7.42383 17.0664 -17.0664 17.0664c-9.41992 0.000976562 -17.0664 7.64746 -17.0674 17.0674c0 9.64258 -7.42285 17.0664 -17.0664 17.0664
c-9.64258 0 -17.0664 -7.42383 -17.0664 -17.0664l0.00195312 -0.241211c0 -9.42188 -7.64648 -17.0684 -17.0684 -17.0684s-17.0684 7.64648 -17.0684 17.0684l0.000976562 0.241211c0 28.0742 23.126 51.1992 51.2002 51.1992zM158.1 226.134
c-24.3848 -0.385742 -47.2002 -9.03418 -64 -25.834c-38.3984 -38.4004 -34.2158 -108.252 13.8672 -156.333s117.935 -52.2676 156.333 -13.8672c38.3994 38.4004 34.2168 108.252 -13.8662 156.334c-27.0469 27.0459 -60.9814 40.1953 -92.334 39.7002zM172.3 157.866
c10.8135 0.0976562 26.3418 -6.57422 34.6602 -14.8926l0.00683594 -0.00683594c0.00195312 -0.00292969 0.00683594 -0.00683594 0.00878906 -0.00976562c17.8789 -17.8779 19.9512 -44.8281 4.62402 -60.1572c-15.3281 -15.3252 -42.2773 -13.2539 -60.1562 4.62305
c-0.00292969 0.00292969 -0.00683594 0.0078125 -0.00976562 0.0107422c-0.00292969 0.00195312 -0.00683594 0.00585938 -0.00976562 0.00878906c-17.8789 17.8789 -19.9502 44.8291 -4.62402 60.1572c5.59473 5.59277 17.0186 10.1924 25.5 10.2666z" />
    <glyph glyph-name="cherry" unicode="&#xf11f;" 
d="M272.8 414.1c0.203125 -0.00488281 0.53125 -0.0195312 0.733398 -0.0332031h0.0166016h0.0166016c0.443359 -0.015625 1.16016 -0.0751953 1.60059 -0.132812h0.0498047h0.0498047c0.0644531 -0.00878906 0.168945 -0.0244141 0.233398 -0.0332031
c0.249023 -0.0302734 0.652344 -0.0898438 0.900391 -0.133789c0.40918 -0.0830078 1.06641 -0.24707 1.46582 -0.366211c0.382812 -0.113281 0.995117 -0.322266 1.36719 -0.466797c0.129883 -0.0439453 0.338867 -0.119141 0.466797 -0.166992
c0.366211 -0.15918 0.948242 -0.443359 1.2998 -0.632812c0.425781 -0.21875 1.09766 -0.606445 1.5 -0.867188c0.390625 -0.256836 1.00293 -0.705078 1.36621 -1c3.50879 -2.82812 6.35645 -8.78125 6.35645 -13.2881
c0 -0.380859 -0.0253906 -0.999023 -0.0556641 -1.37891c0.0302734 -6.10742 0.270508 -12.2344 0.733398 -18.3662c17.4297 -3.55566 44.8633 -12.1973 65.8994 -33.2334c32.5127 -32.5117 35.5977 -80.7354 35.7002 -82.7666
c0.290039 -4.84668 -1.53613 -9.60254 -4.9668 -13.0332c-3.20801 -3.20898 -7.54395 -5 -12.0664 -5c-0.324219 0 -0.625 0.015625 -0.966797 0.0332031c-1.49023 0.0869141 -27.457 1.8584 -54 15.2666c17.251 -43.8701 35.4004 -74.7002 35.4004 -74.7002
c1.58789 -2.37695 2.87793 -6.62598 2.87793 -9.48438c0 -9.42188 -7.64648 -17.0684 -17.0684 -17.0684c-5.56152 0 -12.2559 3.95117 -14.9434 8.81934c0 0 -44.0508 71.0791 -62.5996 158.567c-3.84473 11.0264 -6.06641 21.0488 -7.10059 27.833
c-8.88477 -9.65625 -18.3467 -20.4385 -27.5332 -33.7998c-21.9453 -31.918 -41.7998 -76.1729 -41.7998 -143.733l0.00195312 -0.241211c0 -9.42188 -7.64648 -17.0684 -17.0684 -17.0684s-17.0684 7.64648 -17.0684 17.0684l0.000976562 0.241211
c0 74.3994 22.8125 126.722 47.8008 163.066c12.4941 18.1719 25.4619 32.4287 36.0332 43.667c10.3145 10.9648 18.1592 19.5547 20.5996 23.4326c2.61621 4.87891 9.23145 8.91113 14.7666 9zM136.533 140.8c10.0693 0 18.2617 -8.66602 34.1338 -8.66602
s23.7734 8.66602 34.1328 8.66602c30.7031 0 51.2002 -38.1436 51.2002 -68.2666c0 -47.1211 -38.2119 -85.333 -85.333 -85.333s-85.334 38.2119 -85.334 85.333c0 30.123 20.4971 68.2666 51.2002 68.2666zM307.2 140.8c10.0693 0 18.2607 -8.66602 34.1328 -8.66602
s23.7744 8.66602 34.1338 8.66602c30.7031 0 51.2002 -38.1436 51.2002 -68.2666c0 -47.1211 -38.2129 -85.333 -85.334 -85.333c-26.043 0 -49.083 11.9023 -64.7334 30.2998c8.60156 16.4863 13.5342 35.1846 13.5342 55.0332c0 18.3984 -4.74902 37.2637 -13.334 53.7334
c8.22656 8.75488 18.5215 14.5332 30.4004 14.5332z" />
    <glyph glyph-name="avocado" unicode="&#xf124;" 
d="M307.366 448.1h0.0371094c9.42188 0 17.0684 -7.64648 17.0684 -17.0684c0 -5.9375 -4.34766 -12.8359 -9.70508 -15.3975c0 0 -4.89648 -2.20508 -11.333 -10.2334c-0.561523 -0.700195 -1.10449 -1.65918 -1.66699 -2.43359
c33.5469 -16.8145 56.6338 -51.416 56.6338 -91.5c0 -51.2002 51.1992 -85.333 51.1992 -170.667c0 -84.8379 -68.7607 -153.6 -153.6 -153.6c-84.8379 0 -153.6 68.7617 -153.6 153.6c0 136.533 60.1025 218.418 74.8994 236.167
c18.7734 22.5449 47.0586 36.8994 78.7002 36.8994c4.10254 0 8.12402 -0.296875 12.0996 -0.766602c2.75293 5.14648 5.67871 9.82324 8.7334 13.6338c10.6299 13.2578 22.8008 19.5 22.8008 19.5c2.01074 1.02637 5.47461 1.86328 7.73242 1.86621zM256 243.2
c-47.1211 0 -85.333 -72.3457 -85.333 -119.467s38.2119 -85.333 85.333 -85.333s85.333 38.2119 85.333 85.333s-38.2119 119.467 -85.333 119.467z" />
    <glyph glyph-name="beet" unicode="&#xf10c;" 
d="M255.733 448.233l0.266602 0.00195312c9.42188 0 17.0684 -7.64648 17.0684 -17.0684l-0.00195312 -0.233398v-51.2002l0.00195312 -0.241211c0 -9.42188 -7.64648 -17.0684 -17.0684 -17.0684s-17.0684 7.64648 -17.0684 17.0684l0.00195312 0.241211v51.2002
l-0.00195312 0.233398c0 9.27539 7.52734 16.9209 16.8018 17.0664zM361.434 431.066c9.19824 -0.217773 16.6631 -7.8623 16.6631 -17.0635c0 -5.48047 -3.86621 -12.127 -8.62988 -14.8359c0 0 -27.9453 -17.3398 -36.4336 -46.5
c-2.9043 -9.98438 -6.71387 -20.3457 -11.7666 -30.3008c90.8262 -18.4609 122.434 -75.5195 122.434 -121.899c0 -93.5938 -92.9453 -114.057 -145.767 -147.934c-11.1279 -7.11719 -16.4355 -21.0078 -12.0674 -33.4668
c2.7998 -8.00391 4.26758 -16.1748 4.26758 -24.3662c0 -29.2354 -19.4482 -50.9111 -21.667 -53.2998c-3.3623 -3.60156 -7.89258 -5.40039 -12.4668 -5.40039c-4.18164 0 -8.33984 1.51172 -11.6338 4.56641c-6.87695 6.41699 -7.24805 17.1895 -0.899414 24.0664
c0.1875 0.222656 12.5332 14.0244 12.5332 30.0674c0 11.5195 -5.82617 23.8496 -16.0996 35.2334c-45.2783 44.7822 -171.667 57.4492 -171.667 170.533c0 56.1318 46.1299 128.066 187.767 128.066c10.0293 0 19.4443 -0.443359 28.5332 -1.13281
c6.54004 8.99902 11.9043 21.6367 15.7334 34.7998c12.9131 44.3623 51.9004 66.3662 51.9004 66.3662c2.26172 1.38281 6.24902 2.50391 8.89941 2.50391zM153 431.033l0.398438 0.00488281c2.29004 0 5.7998 -0.853516 7.83496 -1.9043
c0 0 41.7002 -19.4775 49.667 -63.4336c0.222656 -1.00684 0.40332 -2.66113 0.40332 -3.69238c0 -9.42188 -7.64648 -17.0684 -17.0684 -17.0684c-8.19043 0 -15.7627 6.58301 -16.9023 14.6943c-4.35547 24.0371 -31.3662 38.9658 -31.3662 38.9658
c-5.32422 2.57227 -9.64453 9.45703 -9.64453 15.3701c0 9.20801 7.47168 16.8525 16.6777 17.0635z" />
    <glyph glyph-name="peanuts" unicode="&#xf10a;" 
d="M247.467 396.8c51.8486 0 93.8662 -42.0176 93.8662 -93.8662c0 -93.8672 -85.333 -230.4 -204.8 -230.4c-19.0977 0 -36.9414 5.25195 -52.2334 14.4004c-7.96973 4.76172 -6.98828 16.8105 1.7666 19.8994c158.208 55.7744 188.471 178.58 190.434 185.134
c2.69629 9.01074 0.307617 16.0879 -4.2998 18.0332c-4.6084 1.94531 -12.5664 2.46582 -16.8672 -11c-1.91113 -5.93945 -41.374 -116.627 -192.533 -163.833c-10.957 -3.43066 -22.3975 2.83984 -25.333 13.9326c-2.16797 8.24316 -3.33301 16.9082 -3.33301 25.834
c0 34.1162 16.6816 64.3135 42.333 82.9326c16.8789 12.2373 42.0273 18.4941 60.0664 36.5342c18.04 18.0391 24.041 49.1152 35.7998 64.7998c17.1182 22.8184 44.3965 37.5996 75.1338 37.5996zM371.7 189.333c2.66602 0.00488281 5.19043 -0.117188 7.56641 -0.432617
c28.2793 -3.77246 54.5146 -20.3555 69.5332 -47.167c25.3447 -45.2266 9.22656 -102.439 -36 -127.767c-69.3584 -38.8613 -195.086 -39.0352 -267.5 25.0332c36.0967 1.67285 68.9229 13.2891 97.834 31.5332c79.2061 -23.6201 142.995 -10.4902 147.433 -9.5
c9.18262 2.04785 14.9648 11.1348 12.9336 20.333c-1.99707 9.16504 -11.1006 14.9814 -20.2998 12.9668c-3.44727 -0.750977 -47.2197 -9.63379 -105.4 2.5c28.0576 25.5664 50.7305 57.208 67.2002 90.3008c9.52344 0.972656 18.7012 2.18652 26.7002 2.19922z" />
    <glyph glyph-name="fish-food" unicode="&#xf104;" 
d="M492.339 201.045c3.14062 -5.05176 3.44824 -11.3662 0.785156 -16.6738c-1.99609 -4.01074 -35.1396 -68.25 -100.625 -110.114c-22.1865 13.0566 -68.2324 48.4521 -68.2324 117.743c0 26.999 5.13672 48.8281 9.4375 62.3955
c2.85059 8.99414 -2.11621 18.5859 -11.0928 21.4355c-9.02832 2.85059 -18.5684 -2.13281 -21.4355 -11.0928c-5.01758 -15.8721 -11.042 -41.3701 -11.042 -72.7383c0 -71.5264 39.0654 -114.125 68.6416 -136.158c-16.0771 -16.0938 -52.3438 -51.5752 -102.775 -51.5752
c-9.4375 0 -17.0664 7.64551 -17.0664 17.0664v27.5459c-67.5674 20.4629 -121.105 68.1816 -158.413 112.47c0 0 -31.2832 -45.6025 -31.6416 -46.2168c-4.76172 -8.1582 -15.2061 -10.9053 -23.3477 -6.14453c-5.42676 3.1748 -8.46484 9.01172 -8.46484 14.7627
c0 17.2549 17.0674 68.25 17.0674 68.25s-17.0674 51.4043 -17.0674 68.2324c0 6.45117 3.44727 12.2881 9.43848 15.292c8.43066 4.18066 18.6875 0.801758 22.9033 -7.6123c0.306641 -0.648438 31.8467 -51.0635 31.8467 -51.0635
c27.9209 32.1709 64.2559 66.9697 106.479 92.3145v36.4365c0 9.4209 7.62891 17.0674 17.0664 17.0674c174.183 0 284.484 -156.74 287.539 -161.622zM392.533 174.934c9.4209 0 17.0664 7.64551 17.0664 17.0664s-7.64551 17.0664 -17.0664 17.0664
s-17.0664 -7.64551 -17.0664 -17.0664s7.64551 -17.0664 17.0664 -17.0664z" />
    <glyph glyph-name="tomato" unicode="&#xf107;" 
d="M275.033 430.2c9.16602 -0.249023 16.6055 -7.89258 16.6055 -17.0625c0 -2.18262 -0.779297 -5.54395 -1.73828 -7.50391c0 0 -6.13965 -14.8838 -11.0342 -31.0674c14.9326 3.2832 30.4736 4.73828 39.8672 5.16699c4.14746 0.1875 6.81152 -4.21387 4.90039 -7.90039
c-2.30469 -4.48828 -5.71777 -10.3604 -9.9668 -16.2998c15.5479 -2.91797 29.666 -5.70508 38.9326 -7.59961c5.3418 -1.0752 7.52051 -7.58984 3.83398 -11.6006c-9.31836 -10.1035 -26.7734 -24.8662 -49.2334 -24.8662c-8.19238 0 -16.3525 1.50684 -24.0664 4.06641
c-5.63281 -13.5 -13.4971 -25.875 -19.334 -34.0664c-3.80566 -5.3252 -11.7939 -5.3252 -15.5996 0c-5.87109 8.20898 -13.7344 20.6152 -19.3672 34.167c-7.81641 -2.64551 -16.1377 -4.16699 -24.4668 -4.16699c-22.459 0 -39.8809 14.7627 -49.1992 24.8662
c-3.68652 4.01074 -1.54199 10.5254 3.7998 11.6006c9.26758 1.89453 23.4189 4.68164 38.9668 7.59961c-4.25 5.93945 -7.69629 11.8115 -10 16.2998c-1.89453 3.7041 0.786133 8.08789 4.93262 7.90039c11.3955 -0.53418 31.7871 -2.33398 49.2002 -7.4668
c5.66016 26.0205 17 47.9668 17 47.9668c2.5166 5.50488 9.4707 9.97266 15.5234 9.97266zM377.667 309.4c49.3564 -28.3994 83.1328 -85.5371 83.1328 -151.534c0 -94.2588 -68.7617 -170.666 -153.6 -170.666c-17.9883 0 -39.0488 9.89941 -51.2002 9.89941
s-33.2119 -9.89941 -51.2002 -9.89941c-84.8379 0 -153.6 76.4072 -153.6 170.666c0 65.8779 33.6475 122.934 82.833 151.367c20.583 -20.5479 45.3311 -31.9004 70.333 -31.9004c1.89453 0 3.80566 0.0478516 5.7002 0.166992
c3.7041 -6.19531 7.2959 -11.5664 10.334 -15.833c8.1748 -11.4688 21.5029 -18.3008 35.5996 -18.3008s27.4248 6.83203 35.5996 18.3008c3.03809 4.24902 6.62988 9.62109 10.334 15.7998c1.75781 -0.0859375 3.50879 -0.133789 5.2666 -0.133789
c25.0537 0 49.8672 11.416 70.4668 32.0674z" />
    <glyph glyph-name="sandwich" unicode="&#xf11a;" 
d="M256 396.8c2.97363 0 5.94629 -0.780273 8.59961 -2.33301l204.801 -119.467c5.25586 -3.05469 8.4668 -8.6748 8.4668 -14.7334v-71.4004c-5.35938 1.91211 -11.043 3.13379 -17.0674 3.13379c-13.499 0 -23.5732 2.79297 -37.5 6.66699
c-16.6914 4.625 -37.4395 10.3994 -64.8994 10.3994c-27.6309 0 -48.4258 -5.82324 -65.1338 -10.5c-13.6191 -3.82227 -23.4648 -6.56641 -36.333 -6.56641c-13.0732 0 -23.8955 2.92871 -37.6006 6.66699c-17.0488 4.625 -38.3066 10.3994 -65.7334 10.3994
c-27.46 0 -48.208 -5.77441 -64.8994 -10.3994c-13.9268 -3.87402 -24 -6.66699 -37.5 -6.66699c-6.02441 0 -11.708 -1.22168 -17.0664 -3.13379v71.4004c0 6.05859 3.20996 11.6787 8.46582 14.7334l204.801 119.467c2.65332 1.55273 5.62598 2.33301 8.59961 2.33301z
M256 359.967l-170.934 -99.7002h341.867l-71.4336 41.667c-2.80078 -4.1582 -9.14258 -7.5332 -14.1562 -7.5332h-0.0107422c-9.4209 0 -17.0664 7.64551 -17.0664 17.0664c0.0078125 2.22656 0.829102 5.64648 1.83301 7.63281zM230.4 311.467
c4.70996 0 8.5332 -3.82324 8.5332 -8.5332c0 -4.71094 -3.82324 -8.5332 -8.5332 -8.5332c-4.71094 0 -8.53418 3.82227 -8.53418 8.5332c0 4.70996 3.82324 8.5332 8.53418 8.5332zM153.6 174.934c22.8506 0 40.7676 -4.86133 56.5 -9.13379
c15.7334 -4.27246 29.249 -7.93359 46.834 -7.93359c17.584 0 30.5352 3.62793 45.7998 7.90039s32.8164 9.16699 55.667 9.16699c22.8496 0 40.4062 -4.90039 55.7666 -9.16699c15.3594 -4.2666 28.5234 -7.90039 46.6328 -7.90039l0.241211 0.00195312
c9.42188 0 17.0684 -7.64648 17.0684 -17.0684s-7.64648 -17.0684 -17.0684 -17.0684c-0.0664062 0 -0.174805 0.000976562 -0.241211 0.00195312c-22.8506 0 -40.4062 4.90039 -55.7666 9.16699c-15.3594 4.2666 -28.5234 7.89941 -46.6328 7.89941
c-18.1104 0 -31.2461 -3.63965 -46.4668 -7.89941c-15.2207 -4.26074 -32.5635 -9.16699 -55 -9.16699s-40.1094 4.87207 -55.7998 9.13281c-15.6914 4.26172 -29.4238 7.93359 -47.5342 7.93359c-18.1094 0 -31.2725 -3.63281 -46.6328 -7.89941
s-32.916 -9.16699 -55.7666 -9.16699c-0.0664062 -0.000976562 -0.174805 -0.00195312 -0.241211 -0.00195312c-9.42188 0 -17.0684 7.64648 -17.0684 17.0684s7.64648 17.0684 17.0684 17.0684l0.241211 -0.00195312c18.1094 0 31.2734 3.63379 46.6328 7.90039
c15.3604 4.2666 32.917 9.16699 55.7666 9.16699zM153.6 106.667c13.7734 0 24.8545 -2.99414 38.9004 -6.80078c16.7939 -4.57324 37.7236 -10.2666 64.4336 -10.2666c26.9307 0 47.4639 5.74219 63.9326 10.3672c13.9102 3.89062 23.9658 6.7002 37.5342 6.7002
c13.499 0 23.5732 -2.79297 37.5 -6.66699c16.6904 -4.625 37.4395 -10.4004 64.8994 -10.4004c6.02441 0 11.708 1.22266 17.0674 3.13379v-37.2666c0 -9.4209 -7.62891 -17.0664 -17.0674 -17.0664h-409.6c-9.43848 0 -17.0664 7.64551 -17.0664 17.0664v37.2666
c5.3584 -1.91113 11.042 -3.13379 17.0664 -3.13379c27.46 0 48.209 5.77539 64.8994 10.4004c13.9268 3.87402 24.001 6.66699 37.5 6.66699z" />
    <glyph glyph-name="food" unicode="&#xf100;" 
d="M68.2666 379.733h85.333h85.334s34.1328 -68.2666 34.1328 -136.533c0 -61.3516 -29.9922 -111.81 -102.399 -118.601v-73.2666l55.666 -13.4668c7.08105 -1.81543 12.8281 -9.22266 12.8281 -16.5322c0 -9.42188 -7.64648 -17.0684 -17.0684 -17.0684
c-0.0625 0 -0.164062 0 -0.226562 0.000976562h-65.5664c-0.762695 -0.125977 -2.00977 -0.228516 -2.7832 -0.228516s-2.02051 0.102539 -2.7832 0.228516h-65.4004h-0.0927734c-9.42188 0 -17.0684 7.64648 -17.0684 17.0684c0 7.24902 5.6875 14.6406 12.6943 16.498
v0.0332031l55.667 13.4668v73.2666c-72.4072 6.79102 -102.399 57.249 -102.399 118.601c0 68.2666 34.1328 136.533 34.1328 136.533zM324.267 379.733c9.4209 0 17.0664 -7.64551 17.0664 -17.0664v-85.334c0 -9.4375 7.64648 -17.0664 17.0674 -17.0664
s17.0664 7.62891 17.0664 17.0664v85.334c0 9.4209 7.64551 17.0664 17.0664 17.0664s17.0664 -7.64551 17.0664 -17.0664v-85.334c0 -9.4375 7.64648 -17.0664 17.0674 -17.0664s17.0664 7.62891 17.0664 17.0664v85.334c0 9.4209 7.64551 17.0664 17.0664 17.0664
s17.0674 -7.64551 17.0674 -17.0664v-102.4c0 -39.6826 -27.1328 -72.96 -63.834 -82.5l12.5 -136.4h-0.0332031c0.0820312 -0.816406 0.15625 -2.14551 0.166992 -2.96582c0 -18.8418 -15.292 -34.1338 -34.1338 -34.1338s-34.1328 15.292 -34.1328 34.1338
c0.000976562 0.820312 0.0605469 2.14941 0.132812 2.96582h-0.132812l12.5332 136.601c-37.4297 10.0732 -63.7334 45.9932 -63.7334 85.9668v98.7334c0 9.4209 7.64551 17.0664 17.0664 17.0664zM392.4 175v-102.467h0.0664062h0.0664062v102.434
c-0.0439453 0 -0.0888672 0.0332031 -0.132812 0.0332031z" />
    <glyph glyph-name="eggs" unicode="&#xf11e;" 
d="M170.667 379.733c66.1328 0 136.533 -115.32 136.533 -219s-61.1328 -156.467 -136.533 -156.467s-136.533 52.7871 -136.533 156.467s70.3994 219 136.533 219zM320.366 269.667c83.0303 -19.917 157.501 -75.7383 157.501 -128.867
c0 -62.6689 -103.611 -129.091 -202.7 -135.866c41.5059 33.041 66.166 87.6699 66.166 155.8c0 35.5156 -7.6543 73.4854 -20.9668 108.934zM187.733 209.066c-9.4209 0 -17.0664 -7.64551 -17.0664 -17.0664s7.64551 -17.0664 17.0664 -17.0664
s17.0664 7.64551 17.0664 17.0664s-7.64551 17.0664 -17.0664 17.0664zM213.333 123.733c-14.1309 0 -25.5996 -11.4688 -25.5996 -25.6006c0 -14.1309 11.4688 -25.5996 25.5996 -25.5996c14.1318 0 25.6006 11.4688 25.6006 25.5996
c0 14.1318 -11.4688 25.6006 -25.6006 25.6006zM392.533 123.733c-9.4209 0 -17.0664 -7.64551 -17.0664 -17.0664s7.64551 -17.0674 17.0664 -17.0674s17.0664 7.64648 17.0664 17.0674s-7.64551 17.0664 -17.0664 17.0664z" />
    <glyph glyph-name="pear" unicode="&#xf117;" 
d="M205.2 448.066c1.41895 -0.0498047 3.6582 -0.467773 5 -0.932617c0 0 16.7852 -5.71875 32.2666 -21.2002c13.3838 -13.3848 26.459 -35.0195 29.7666 -65.4336c29.8262 -7.3125 52.0332 -34.0205 52.0332 -66.0996c0 -51.2002 85.333 -102.4 85.333 -187.733
c0 -65.9805 -68.7607 -119.467 -153.6 -119.467c-84.8379 0 -153.6 53.4863 -153.6 119.467c0 85.333 85.333 136.533 85.333 187.733c0 31.4043 21.3242 57.5732 50.2002 65.5332c-2.75391 20.8848 -11.2539 33.5195 -19.6006 41.8662
c-10.1182 10.1182 -18.9326 12.9336 -18.9326 12.9336c-6.58789 2.07812 -11.9346 9.37012 -11.9346 16.2783c0 9.4209 7.64648 17.0684 17.0684 17.0684c0.183594 0 0.482422 -0.00585938 0.666016 -0.0136719zM384.4 447.934
c4.625 0.59668 8.57715 -2.70703 8.09961 -6.7002c-2.40625 -20.1045 -14.7236 -74.4199 -77.7334 -78.5332c-4.16406 -0.273438 -7.75391 2.86621 -7.56641 6.43359c3.48145 63.0098 56.0713 76.0859 77.2002 78.7998z" />
    <glyph glyph-name="pie" unicode="&#xf122;" 
d="M256 379.733c18.8418 0 34.1338 -15.292 34.1338 -34.1338c-0.00683594 -0.625977 -0.0517578 -1.6416 -0.100586 -2.2666c109.423 -14.498 151.281 -96.3877 164.8 -133c2.17969 -0.479492 5.16895 -1.2666 5.9668 -1.2666l0.241211 0.00195312
c9.42188 0 17.0684 -7.64648 17.0684 -17.0684s-7.64648 -17.0684 -17.0684 -17.0684l-0.241211 0.00195312c-14.2217 0 -26.7334 5.13281 -39.5332 9.39941s-25.8887 7.66699 -28.7334 7.66699s-15.9336 -3.40039 -28.7334 -7.66699s-25.3105 -9.39941 -39.5332 -9.39941
c-14.2217 0 -26.7197 5.13379 -39.5332 9.39941s-25.9375 7.66699 -28.8662 7.66699c-2.92969 0 -15.9463 -3.40137 -28.7002 -7.66699s-25.2119 -9.39941 -39.4336 -9.39941c-14.2227 0 -26.7334 5.13281 -39.5332 9.39941s-25.8887 7.66699 -28.7334 7.66699
s-15.9336 -3.40039 -28.7334 -7.66699s-25.3115 -9.39941 -39.5332 -9.39941l-0.241211 -0.00195312c-9.42188 0 -17.0684 7.64648 -17.0684 17.0684s7.64648 17.0684 17.0684 17.0684l0.241211 -0.00195312c0.797852 0 3.78711 0.787109 5.9668 1.2666
c13.5186 36.6123 55.377 118.502 164.8 133c-0.0488281 0.625 -0.09375 1.64062 -0.100586 2.2666c0 18.8418 15.292 34.1338 34.1338 34.1338zM170.667 294.4c-9.4209 0 -17.0674 -7.64648 -17.0674 -17.0674s7.64648 -17.0664 17.0674 -17.0664
s17.0664 7.64551 17.0664 17.0664s-7.64551 17.0674 -17.0664 17.0674zM341.333 294.4c-9.4209 0 -17.0664 -7.64648 -17.0664 -17.0674s7.64551 -17.0664 17.0664 -17.0664s17.0674 7.64551 17.0674 17.0664s-7.64648 17.0674 -17.0674 17.0674zM256 277.333
c-9.4209 0 -17.0664 -7.64551 -17.0664 -17.0664s7.64551 -17.0664 17.0664 -17.0664s17.0664 7.64551 17.0664 17.0664s-7.64551 17.0664 -17.0664 17.0664zM119.467 157.533c4.48828 -1.0918 12.4033 -3.72363 17.9336 -5.56641
c16.4688 -5.47852 33.4883 -11.167 50.333 -11.167c16.8623 0 33.7988 5.67188 50.2002 11.1338c5.54688 1.86035 13.4951 4.52441 17.9668 5.59961c4.50488 -1.0752 12.502 -3.73926 18.0996 -5.59961c16.4521 -5.46191 33.4561 -11.1338 50.2666 -11.1338
c16.8447 0 33.8643 5.68848 50.333 11.167c5.53027 1.84277 13.4453 4.47461 17.9336 5.56641c4.48828 -1.0918 12.4043 -3.72363 17.9336 -5.56641c13.1758 -4.38672 26.7168 -8.74512 40.2334 -10.3672l-18.5664 -92.833
c-3.19238 -15.957 -17.2021 -27.4336 -33.4668 -27.4336h-285.334c-16.2812 0 -30.292 11.4766 -33.4668 27.4336l-18.5664 92.833c13.5166 1.62207 27.0576 5.98047 40.2334 10.3672c5.5293 1.84277 13.4453 4.47461 17.9336 5.56641z" />
    <glyph glyph-name="italian-pizza" unicode="&#xf10f;" 
d="M460.8 134.435l-378.727 -145.664c-18.3467 -7.04883 -36.3516 10.9561 -29.3027 29.3027l145.664 378.727c144.896 0 262.365 -117.47 262.365 -262.365zM153.6 72.5332c18.8594 0 34.1338 15.2744 34.1338 34.1338c0 18.8584 -15.2744 34.1328 -34.1338 34.1328
c-18.8584 0 -34.1328 -15.2744 -34.1328 -34.1328c0 -18.8594 15.2744 -34.1338 34.1328 -34.1338zM273.066 192c0 -28.2793 22.9209 -51.2002 51.2002 -51.2002s51.2002 22.9209 51.2002 51.2002s-22.9209 51.2002 -51.2002 51.2002s-51.2002 -22.9209 -51.2002 -51.2002z
M187.733 251.733c0 -14.1309 11.4688 -25.5996 25.5996 -25.5996c14.1318 0 25.6006 11.4688 25.6006 25.5996c0 14.1484 -11.4688 25.5996 -25.6006 25.5996c-14.1309 0 -25.5996 -11.4512 -25.5996 -25.5996z" />
    <glyph glyph-name="pancake" unicode="&#xf123;" 
d="M230.4 396.8c14.9014 -0.0146484 32.165 -10.96 38.5332 -24.4336c5.13867 4.06641 14.6279 7.36719 21.1807 7.36719h0.0195312c18.8408 0 34.1328 -15.292 34.1328 -34.1338c-0.00683594 -5.05078 -2.06738 -12.6963 -4.59961 -17.0664h98.4668
c14.1309 0 25.5996 -11.4688 25.5996 -25.5996c0 -14.1318 -11.4688 -25.6006 -25.5996 -25.6006h-25.6006c-28.2793 0 -51.2002 -22.9199 -51.2002 -51.1992v-102.4c0 -9.4375 -7.64551 -17.0664 -17.0664 -17.0664s-17.0664 7.62891 -17.0664 17.0664v128
c0 14.1309 -11.4688 25.5996 -25.6006 25.5996c-14.1309 0 -25.5996 -11.4688 -25.5996 -25.5996v-25.5996c0 -9.43848 -7.64551 -17.0674 -17.0664 -17.0674s-17.0674 7.62891 -17.0674 17.0674v17.0664c0 18.8584 -15.2744 34.1328 -34.1328 34.1328h-93.8672
c-14.1309 0 -25.5996 11.4688 -25.5996 25.6006c0 14.1309 11.4688 25.5996 25.5996 25.5996h102.434c-4.7207 6.27734 -8.55859 17.7461 -8.56641 25.6006c0 23.5518 19.1143 42.666 42.667 42.666zM76.7998 243.2h17.0664h93.8672v-17.0664
c0 -13.1592 5.1084 -25.0547 13.2998 -34.1338h-124.233c-14.1484 0 -25.5996 11.4688 -25.5996 25.5996c0 14.1318 11.4512 25.6006 25.5996 25.6006zM392.533 243.2h25.6006c14.1475 0 25.5996 -11.4688 25.5996 -25.6006c0 -14.1309 -11.4521 -25.5996 -25.5996 -25.5996
h-42.667v34.1338c0 9.40332 7.66309 17.0664 17.0664 17.0664zM93.8662 157.866h179.2v-34.1328c0 -6.00781 1.22168 -11.708 3.13379 -17.0664h-182.334c-14.1475 0 -25.5996 11.4688 -25.5996 25.5996s11.4521 25.5996 25.5996 25.5996zM375.467 157.866h76.7998
c14.1484 0 25.6006 -11.4688 25.6006 -25.5996s-11.4521 -25.5996 -25.6006 -25.5996h-79.9336c1.91211 5.3584 3.13379 11.0586 3.13379 17.0664v34.1328zM76.7998 72.5332h341.334c0.0996094 0.00195312 0.261719 0.00292969 0.361328 0.00292969
c14.1328 0 25.6025 -11.4697 25.6025 -25.6025s-11.4697 -25.6025 -25.6025 -25.6025c-0.0996094 0 -0.261719 0.000976562 -0.361328 0.00195312h-341.334c-0.0996094 -0.000976562 -0.261719 -0.00195312 -0.362305 -0.00195312
c-14.1318 0 -25.6025 11.4697 -25.6025 25.6025s11.4707 25.6025 25.6025 25.6025c0.100586 0 0.262695 -0.000976562 0.362305 -0.00292969z" />
    <glyph glyph-name="taco" unicode="&#xf116;" 
d="M256.2 396.8c18.125 0 35.1582 -5.83301 49.0332 -16.5c9.5918 -7.78223 22.375 -12.5996 36.2334 -12.5996c30.8906 0 56.4746 -16.498 68.2002 -40.7666c5.3418 -9.71094 13.875 -16.4814 25.5996 -19.4004c34.0996 -7.76562 55.4004 -33.9824 55.4004 -66
c0 -3.87402 -0.00878906 -8.73145 -1.06738 -11.6328c-3.20801 -12.6123 -1.04883 -25.2402 7.4668 -34.9336c9.6084 -11.6396 14.9336 -25.2529 14.9336 -40.7666c0 -37.8203 -34.1328 -47.5332 -34.1328 -47.5332v17.0664c0 122.334 -99.5332 221.866 -221.867 221.866
s-221.866 -99.5322 -221.866 -221.866v-17.0664s-22.3252 9.74902 -32.667 33.9326c-4.2666 20.3779 1.0752 38.8262 12.7998 53.3672c8.5166 9.71094 10.667 22.3037 8.5332 34.9336c-1.05762 3.9082 -1.06641 8.75879 -1.06641 12.6328
c0 32.0176 21.3174 59.168 57.5664 66.9336c9.5918 1.94531 18.1006 8.7793 22.3672 17.5c11.7246 24.2344 38.3916 41.7002 69.2998 41.7002c13.8584 0 26.6416 4.86816 36.2334 12.6328c13.8408 10.6836 30.875 16.5 49 16.5zM256 311.467
c103.68 0 187.733 -84.0537 187.733 -187.733v-68.2666c0 -18.8584 -15.2744 -34.1338 -34.1338 -34.1338h-307.199c-18.8594 0 -34.1338 15.2754 -34.1338 34.1338v68.2666c0 103.68 84.0537 187.733 187.733 187.733zM170.7 157.866
c-9.4209 0 -17.0664 -7.6123 -17.0664 -17.0332s7.64551 -17.0664 17.0664 -17.0664s17.0332 7.64551 17.0332 17.0664s-7.6123 17.0332 -17.0332 17.0332zM136.566 106.667c-9.4209 0 -17.0664 -7.61328 -17.0664 -17.0342c0 -9.41992 7.64551 -17.0664 17.0664 -17.0664
s17.0332 7.64648 17.0332 17.0664c0 9.4209 -7.6123 17.0342 -17.0332 17.0342zM204.833 106.667c-9.4209 0 -17.0664 -7.61328 -17.0664 -17.0342c0 -9.41992 7.64551 -17.0664 17.0664 -17.0664s17.0332 7.64648 17.0332 17.0664
c0 9.4209 -7.6123 17.0342 -17.0332 17.0342z" />
    <glyph glyph-name="olive" unicode="&#xf125;" 
d="M295.033 396.7c1.5625 -0.0205078 3.25684 -0.466797 5.10059 -1.36719c29.6953 -14.5068 58.1992 -43.3545 58.1992 -83.666c0 -11.2715 -1.81152 -20.4951 -4.36621 -28.5674c30.1523 13.9971 65.248 24.7012 105.3 28.3008
c0.331055 0.0292969 0.868164 0.0595703 1.2002 0.0664062l0.365234 0.00390625c9.42188 0 17.0684 -7.64648 17.0684 -17.0684c0 -8.62695 -6.97461 -16.2432 -15.5674 -17.002c-118.815 -10.6787 -187.993 -89.5186 -208.866 -117.101
c25.9014 -33.4492 26.5762 -86.6826 -1.66699 -131.066c-18.6709 -29.3379 -46.9014 -50.042 -77.3994 -56.7998c-6.96387 -1.53613 -13.9238 -2.30078 -20.7334 -2.30078c-16.4014 0 -32.0205 4.41699 -45.4004 12.9668
c-44.6631 28.5869 -53.0723 95.7842 -18.7002 149.801c18.6709 29.3369 46.8691 50.0078 77.3672 56.7666c21.4199 4.69629 42.6221 2.05371 60.4668 -7.40039c8.37109 10.8271 21.6377 26.3848 41.2334 44.0332c-45.3701 0.891602 -91.5928 32.3936 -113.867 79.5332
c-1.60449 3.46484 -1.57422 7.33691 0.166992 10.7334c1.74023 3.39648 4.98926 6.02148 9 7.2334c30.1904 9.08008 67.9863 4.88379 96.2998 -10.7666c4.65039 -2.57227 9.59473 -5.74609 14.4668 -9.63281c-3.14746 21.5352 -1.47266 48.9209 10.2666 83.8662
c1.95801 5.82422 5.37891 9.49414 10.0664 9.43359zM378.667 209.033c43.542 -1.09473 84.3848 -38.2744 96.0332 -90.8994c6.29785 -28.4678 3.22754 -57.3369 -8.60059 -81.3672c-12.458 -25.293 -33.0322 -42.2383 -57.9658 -47.7334
c-5.59863 -1.22852 -11.2197 -1.83301 -16.8008 -1.83301c-44.2705 0 -86.1895 37.4814 -98 90.8994c-6.29688 28.4678 -3.25977 57.4043 8.56738 81.4004c12.4756 25.293 33.0654 42.2383 58 47.7334c6.25195 1.37598 12.5459 1.95605 18.7666 1.7998zM168.3 157.866
c-26.0439 -3.61816 -56.8818 -26.9199 -65.4668 -64.4658c-2.09863 -9.18262 3.63477 -18.335 12.834 -20.4336c1.2793 -0.290039 2.57031 -0.433594 3.83301 -0.433594c7.78223 0 14.791 5.33105 16.5996 13.2666c5.39355 23.6035 24.8506 36.5771 36.9336 38.2666
c9.33594 1.29688 15.8301 9.91504 14.5332 19.2334c-1.2793 9.33594 -9.89648 15.915 -19.2666 14.5664zM360.5 157.733c-4.33496 0.543945 -8.85449 -0.582031 -12.5664 -3.4668c-14.0977 -10.957 -21.9023 -25.4785 -22.5332 -42.0332
c-0.871094 -23.1084 12.7441 -44.3633 21.5332 -52.333c3.27637 -2.95312 7.37012 -4.43359 11.4668 -4.43359c4.6416 0 9.25391 1.87891 12.6328 5.59961c6.33203 6.98047 5.81348 17.7686 -1.16602 24.1006c-2.21875 2.01367 -10.7773 14.0918 -10.334 25.7998
c0.239258 6.41699 3.20703 11.6221 9.33398 16.3662c7.44043 5.78613 8.78516 16.4756 3 23.9336c-2.89355 3.72949 -7.03223 5.92285 -11.3672 6.4668z" />
    <glyph glyph-name="bread" unicode="&#xf11c;" 
d="M443.085 372.958c26.2314 -26.2314 20.8555 -52.7529 0 -73.6084l-147.2 -147.234l-147.234 -147.2c-20.8555 -20.8721 -47.377 -26.2314 -73.5908 -0.0166016c-31.625 31.624 -32.1885 109.329 1.22852 187.084l9.55762 -38.2627
c1.94531 -7.74902 8.8916 -12.9199 16.5371 -12.9199c1.38281 0 2.76465 0.15332 4.14746 0.511719c9.14746 2.28711 14.7109 11.5547 12.4248 20.7021l-11.4688 45.8584c-5.1377 20.5312 -0.291016 42.1377 12.6113 58.9141
c4.04492 5.27344 8.27734 10.4619 12.6982 15.5479c7.59473 8.73828 21.8965 5.85352 25.5654 -5.12012c6.00781 -17.9199 13.1758 -39.4072 13.1758 -39.4072c2.38965 -7.15039 9.04492 -11.6729 16.1963 -11.6729c1.77441 0 3.60059 0.272461 5.39258 0.870117
c8.94336 2.98633 13.7734 12.6465 10.7861 21.5889l-13.4824 40.4658c-7.64551 22.9717 2.01367 47.8887 22.6992 60.4668c2.81543 1.72363 5.64844 3.37891 8.48145 5c10.7695 6.14453 24.457 0.990234 28.3818 -10.7686l6.87793 -20.6162
c2.38965 -7.15137 9.0459 -11.6738 16.1963 -11.6738c1.77539 0 3.60156 0.272461 5.41016 0.887695c8.94336 2.98633 13.7734 12.6465 10.7861 21.5889l-3.89062 11.6562c-6.38281 19.1318 5.20508 39.5947 24.832 44.1855
c57.5312 13.4316 108.697 7.35645 132.881 -16.8271z" />
    <glyph glyph-name="soup-plate" unicode="&#xf112;" 
d="M238.667 397.033l0.266602 0.00195312c9.42188 0 17.0684 -7.64648 17.0684 -17.0684l-0.00195312 -0.233398c0 -36.5166 7.02344 -51.4482 15.2666 -67.9336s18.8672 -36.0205 18.8672 -68.5996l0.000976562 -0.241211c0 -9.42188 -7.64648 -17.0684 -17.0684 -17.0684
s-17.0684 7.64648 -17.0684 17.0684l0.00195312 0.241211c0 25.9424 -6.44238 35.6855 -15.2666 53.333s-18.8672 41.7051 -18.8672 83.2002l-0.000976562 0.233398c0 9.27539 7.52734 16.9219 16.8018 17.0664zM156.434 362.9
c7.93457 -0.0488281 15.4307 -6.44043 16.7334 -14.2666c3.60449 -20.0479 10.0928 -30.9824 17.2666 -45.6006c7.17285 -14.6182 14.3662 -32.9629 14.3662 -59.833l0.00195312 -0.241211c0 -9.42188 -7.64648 -17.0684 -17.0684 -17.0684
s-17.0684 7.64648 -17.0684 17.0684l0.00195312 0.241211c0 21.3945 -4.4248 31.6035 -10.9004 44.7998s-15.6631 29.3359 -20.2002 54.5664c-0.173828 0.892578 -0.31543 2.35547 -0.31543 3.26562c0 9.42188 7.64746 17.0684 17.0684 17.0684h0.114258zM327.1 362.9
c7.93457 -0.0488281 15.4316 -6.44043 16.7334 -14.2666c3.60449 -20.0479 10.0938 -30.9824 17.2666 -45.6006c7.17383 -14.6182 14.3672 -32.9629 14.3672 -59.833l0.00195312 -0.241211c0 -9.42188 -7.64648 -17.0684 -17.0684 -17.0684
s-17.0684 7.64648 -17.0684 17.0684l0.000976562 0.241211c0 21.3945 -4.42383 31.6035 -10.8994 44.7998s-15.6641 29.3359 -20.2002 54.5664c-0.173828 0.892578 -0.31543 2.35547 -0.31543 3.26562c0 9.42188 7.64648 17.0684 17.0684 17.0684h0.113281zM68.2666 192
h375.467l0.241211 0.00195312c9.42188 0 17.0684 -7.64648 17.0684 -17.0684s-7.64648 -17.0684 -17.0684 -17.0684l-0.241211 0.000976562h-0.133789c0 -58.1543 -36.4336 -107.688 -87.666 -127.366c1.47363 -2.31543 2.66992 -6.42188 2.66992 -9.16602
c0 -9.42188 -7.64648 -17.0684 -17.0684 -17.0684c-0.0556641 0 -0.146484 0 -0.202148 0.000976562h-170.666c-0.0625 -0.000976562 -0.164062 -0.000976562 -0.226562 -0.000976562c-9.42188 0 -17.0684 7.64648 -17.0684 17.0684
c0 2.7207 1.17773 6.79688 2.62793 9.09961c-51.333 19.626 -87.8662 69.2041 -87.8662 127.433h-0.166016c-9.42188 0 -17.0684 7.64648 -17.0684 17.0684s7.64648 17.0684 17.0684 17.0684z" />
    <glyph glyph-name="food-wrapper" unicode="&#xf103;" 
d="M221.866 413.866h68.2676c65.7803 0 119.466 -53.6855 119.466 -119.466v-17.0674c-0.00390625 -0.553711 -0.0634766 -1.4502 -0.132812 -2l-30.5996 -260c-3.02832 -25.6318 -25.0273 -45.2002 -50.834 -45.2002h-44.4668h-99.6328
c-25.8223 0 -47.8047 19.5674 -50.834 45.2002l-30.5664 260c-0.0693359 0.549805 -0.128906 1.44629 -0.132812 2v14.5v2.56738c0 65.7803 53.6855 119.466 119.466 119.466zM221.866 379.733c-47.3369 0 -85.333 -37.9961 -85.333 -85.333v-2.56738
c0 -10.9648 2.66504 -14.4717 8.63379 -18.8662c2.27637 -1.67676 5.43945 -3.21582 8.9668 -4.66699c2.59668 21.6533 16.2432 43.167 50.666 43.167c0 0 8.72168 34.1328 51.2002 34.1328c34.1338 0 51.2002 -25.5332 51.2002 -25.5332s9.88086 8.4668 28.4668 8.4668
c20.4141 0 34.2197 -16.5312 39.7666 -33.2002c-0.500977 46.8984 -38.2773 84.4004 -85.2998 84.4004h-68.2676zM372.6 254.1c-11.9541 -4.29395 -25.0371 -7.16504 -38.3994 -9.93262c-16.4688 -3.41113 -33.1787 -6.65625 -46.4336 -10.8008
c-13.2549 -4.14355 -22.2432 -9.65625 -24.9336 -13.2324l-0.0664062 -0.0673828l-0.0664062 -0.0664062c-19.4551 -25.2783 -38.167 -44.6836 -38.167 -107.367c0 -23.0645 6.44531 -52.5547 17.7666 -74.3662s25.2881 -34 41.2666 -34h44.4668
c8.78906 0 15.9121 6.34961 16.9336 15.0664zM141.467 236.5l25.5332 -217.167c1.0332 -8.73926 8.14453 -15.0664 16.9336 -15.0664h39.5c-4.29102 5.75781 -8.13184 11.9062 -11.4336 18.2666c-14.4785 27.8945 -21.5996 61.1113 -21.5996 90.0996
c0 51.3418 14.1494 82.9355 29.0332 105.733c-3.11426 1.08691 -6.09766 2.20703 -10.2002 3.10059c-11.7432 2.55762 -26.4531 4.33398 -41.2334 7.33301c-8.89355 1.80469 -17.8887 4.15234 -26.5332 7.7002zM290.134 157.866
c9.41992 0 17.0664 -7.64551 17.0664 -17.0664s-7.64648 -17.0664 -17.0664 -17.0664c-9.4209 0 -17.0674 7.64551 -17.0674 17.0664s7.64648 17.0664 17.0674 17.0664zM264.533 106.667c4.71094 0 8.5332 -3.82324 8.5332 -8.53418
c0 -4.70996 -3.82227 -8.5332 -8.5332 -8.5332c-4.70996 0 -8.5332 3.82324 -8.5332 8.5332c0 4.71094 3.82324 8.53418 8.5332 8.53418z" />
    <glyph glyph-name="steak" unicode="&#xf108;" 
d="M294.8 396.8c79.7881 0 131.607 -36.0771 161.233 -75c14.8135 -19.4609 24.3887 -39.4756 30.3672 -56.3662c5.97852 -16.8916 8.5332 -29.4316 8.5332 -39.2998v-0.126953c0 -0.296875 -0.0146484 -0.777344 -0.0332031 -1.07324v-81.1006
c0 -86.2383 -68.5127 -156.633 -153.4 -156.633c-46.9814 0 -81.9717 19.3193 -109.033 36.8994c-27.0615 17.5811 -46.7715 31.3672 -61.7666 31.3672c-10.2373 0 -19.2715 -3.20508 -31.4336 -7.5332c-12.1611 -4.32812 -27.2998 -9.5332 -46.5 -9.5332
c-40.7676 0 -75.7002 31.8984 -75.7002 74.0664v79.5332c0 43.5166 32.291 91.8848 81.834 132.5s118.224 72.2998 195.899 72.2998zM294.8 362.667c-68.3291 0 -129.981 -28.2627 -174.267 -64.5674s-69.333 -81.8271 -69.333 -106.1v-6.66699
c0 -12.4756 10.1465 -44.5332 41.5664 -44.5332c32.4102 0 50.3877 17.0664 77.9336 17.0664c46.6426 0 85.9951 -68.2666 170.8 -68.2666c74.9053 0 119.2 35.9082 119.2 119.467c0 -0.169922 0.0625 -0.455078 0.0664062 -0.632812v17.7002v0.0498047v0.0498047
c-0.0117188 1.57129 -1.61523 13.8115 -6.56641 27.7998c-4.96973 14.04 -13.0811 31.0029 -25.333 47.1006c-24.5059 32.1943 -64.2314 61.5332 -134.067 61.5332zM290.134 328.533c56.8145 0 136.083 -36.958 136.066 -109.866
c0.819336 -50.7734 -35.6191 -93.6338 -91.7002 -93.6338c-62.3271 0 -90.7852 66.9668 -163.967 66.9668c-18.2607 0 -61.2832 -17.0664 -64.1328 -17.0664c-11.7764 0 -21.5 11.7666 -21.5 23.833c0 30.7715 102.56 129.767 205.233 129.767zM328.4 278.467
c-1.87402 0.0585938 -3.29785 -0.296875 -4.13379 -1.13379c-6.69043 -6.68945 17.8037 -14.79 11.2334 -25.8662s-79.5 5.03516 -79.5 -6.43359s85.333 -18.8486 85.333 -35.9668c0 -17.1172 -18.1475 -26.3848 -10.3994 -34.1328s45.1328 14.7754 45.1328 52.0664
c0 29.6279 -34.5508 51.0527 -47.666 51.4668z" />
    <glyph glyph-name="potato" unicode="&#xf10b;" 
d="M459.861 257.877c6.48535 -66.5771 -21.623 -142.882 -71.5771 -194.372c-46.8311 -48.2646 -112.641 -76.3564 -176.282 -76.3564c-7.74805 0 -15.4453 0.410156 -23.0908 1.24609c-50.5342 5.59766 -91.3408 29.8672 -114.927 68.3525
c-56.4736 92.1592 2.25195 144.555 54.0498 190.805c13.6699 12.2031 27.8184 24.832 39.6289 37.9053l11.9297 13.3125c57.7197 64.6143 123.102 137.898 216.029 73.4375c37.2568 -25.8223 59.4775 -65.3828 64.2393 -114.33zM145.066 140.8
c4.71094 0 8.5332 3.82324 8.5332 8.5332c0 4.71094 -3.82227 8.5332 -8.5332 8.5332c-4.70996 0 -8.5332 -3.82227 -8.5332 -8.5332c0 -4.70996 3.82324 -8.5332 8.5332 -8.5332zM221.866 174.934c-9.41992 0 -17.0664 -7.64648 -17.0664 -17.0674
c0 -9.41992 7.64648 -17.0664 17.0664 -17.0664c9.4209 0 17.0674 7.64648 17.0674 17.0664c0 9.4209 -7.64648 17.0674 -17.0674 17.0674zM170.667 72.5332c9.4209 0 17.0664 7.64551 17.0664 17.0664s-7.64551 17.0674 -17.0664 17.0674
s-17.0674 -7.64648 -17.0674 -17.0674s7.64648 -17.0664 17.0674 -17.0664zM238.934 260.267c9.4209 0 17.0664 7.64551 17.0664 17.0664s-7.64551 17.0674 -17.0664 17.0674s-17.0674 -7.64648 -17.0674 -17.0674s7.64648 -17.0664 17.0674 -17.0664zM332.8 89.5996
c4.71094 0 8.5332 3.82324 8.5332 8.5332c0 4.71094 -3.82227 8.53418 -8.5332 8.53418c-4.70996 0 -8.5332 -3.82324 -8.5332 -8.53418c0 -4.70996 3.82324 -8.5332 8.5332 -8.5332zM332.8 209.066c4.71094 0 8.5332 3.82324 8.5332 8.5332
c0 4.71094 -3.82227 8.53418 -8.5332 8.53418c-4.70996 0 -8.5332 -3.82324 -8.5332 -8.53418c0 -4.70996 3.82324 -8.5332 8.5332 -8.5332zM375.467 226.134c9.4209 0 17.0664 7.64551 17.0664 17.0664s-7.64551 17.0664 -17.0664 17.0664
s-17.0664 -7.64551 -17.0664 -17.0664s7.64551 -17.0664 17.0664 -17.0664z" />
    <glyph glyph-name="croissant" unicode="&#xf121;" 
d="M427.9 396.8c18.1416 0.0341797 32.8652 -16.3096 32.8994 -36.5v-0.266602c0 -19.2344 -3.37695 -39.3535 -9.33301 -59.7998c-22.6816 13.1924 -56.8389 29.4824 -82.2002 40.9004c11.9131 14.4375 23.0479 28.4258 32.4004 40.7998
c5.97266 8.97656 15.4473 14.8496 26.2334 14.8662zM316.366 328.5c3.8252 -0.162109 7.62695 -0.814453 11.3008 -1.9668c6.09277 -1.91113 93.3252 -40.3154 120.666 -59.5664c9.31836 -6.55371 12.4668 -18.1533 12.4668 -28.7002
c0 -6.53613 -1.6709 -13.1738 -5.0332 -19.2666c-5.27344 -9.4375 -11.7461 -19.6992 -31.833 -44.6338c-2.20215 2.91895 -4.33887 5.87207 -6.9668 8.5c-4.94922 4.9502 -110.299 87.8193 -151.601 111.2c-0.904297 0.512695 -1.94434 0.888672 -2.86621 1.36719
l22 21.166c8.74219 8.41016 20.3936 12.3877 31.8662 11.9004zM216.066 277.333c12.4648 -0.189453 25.0947 -3.90723 34.5674 -9.2666c40.3447 -22.835 144.432 -105.531 145.199 -106.3c18.3643 -18.3809 18.3643 -48.1865 0 -66.5332l-43.0664 -43.0332
c-18.3633 -18.3643 -48.1357 -18.3643 -66.5 0c-4.83008 4.83008 -78.5674 96.6963 -106.267 145.2c-10.8545 18.9951 -14.8926 50.6074 2.56641 68.0664c8.72949 8.72949 21.0352 12.0566 33.5 11.8662zM152.634 185.566
c0.511719 -0.972656 0.904297 -2.02734 1.43262 -2.9668c29.1162 -50.9775 104.838 -145.304 111.067 -151.533c2.62793 -2.64551 5.56445 -4.81543 8.5 -7c-24.9521 -20.1045 -35.1963 -26.5596 -44.6338 -31.833c-6.09277 -3.3623 -12.7305 -5.0332 -19.2666 -5.0332
c-10.5469 0 -22.1465 3.14844 -28.7002 12.4668c-19.251 27.3408 -57.6553 114.573 -59.5664 120.666c-4.6084 14.6943 -1.2793 31.5107 9.93359 43.167zM106.866 78.7334c11.4355 -25.3779 27.708 -59.5352 40.9004 -82.2002
c-20.4287 -5.95605 -40.5498 -9.33301 -59.7666 -9.33301h-0.299805c-20.207 0.0341797 -36.5342 14.7578 -36.5 32.8994c0.0166016 10.7861 5.88965 20.2607 14.8662 26.2334c12.3906 9.35254 26.3623 20.4707 40.7998 32.4004z" />
    <glyph glyph-name="tapas" unicode="&#xf119;" 
d="M482 430.934h12.9336v-12.9336c0 -13.585 -5.3916 -26.6084 -15 -36.2002l-27.9668 -27.9668l-34.1338 34.1338l27.9668 27.9668c9.6084 9.59082 22.6152 15 36.2002 15zM313.733 379.7c31.4912 0.597656 65.0967 -12.5303 91.2666 -38.7002
c46.5234 -46.5068 51.9014 -116.565 12.0332 -156.434c-39.8672 -39.8672 -109.909 -34.4902 -156.434 12.0332c-46.5234 46.5068 -51.9004 116.566 -12.0332 156.434c17.4424 17.4424 40.6738 26.2012 65.167 26.667zM315.733 345.6
c-14.1309 0 -25.5996 -11.4688 -25.5996 -25.5996s11.4688 -25.5996 25.5996 -25.5996s25.5996 11.4688 25.5996 25.5996s-11.4688 25.5996 -25.5996 25.5996zM136.533 260.066c10.6582 0 21.3008 -4.06738 29.4336 -12.2002l128.833 -128.833
c16.2646 -16.2646 16.2646 -42.6357 0 -58.9004l-7.7334 -7.73242c-4.2832 1.92773 -8.99902 3.06641 -14 3.06641c-18.8584 0 -34.1328 -15.2744 -34.1328 -34.1338c0 -5 1.15527 -9.69922 3.06641 -14l-7.7666 -7.7666c-16.2646 -16.2646 -42.6357 -16.2646 -58.9004 0
l-128.833 128.834c-16.2646 16.2637 -16.2646 42.6348 0 58.8994l60.5664 60.5664c8.13281 8.13281 18.8086 12.2002 29.4668 12.2002zM145.134 209.066c-14.1318 -0.0341797 -25.6162 -11.5352 -25.667 -25.666c-0.0341797 -14.1484 11.4023 -25.5684 25.5332 -25.5342
c14.1309 0.0517578 25.6152 11.5361 25.667 25.667c0.0341797 14.1484 -11.4023 25.585 -25.5332 25.5332zM187.767 89.5996c-9.4209 -0.0166016 -17.0654 -7.67871 -17.0996 -17.0996c-0.0175781 -9.4375 7.6123 -17.0674 17.0332 -17.0332
s17.0654 7.69531 17.0996 17.1328c0.0175781 9.4209 -7.6123 17.0342 -17.0332 17zM77.1338 47.2334l34.1328 -34.1338l-28 -27.9668c-9.6084 -9.59082 -22.6152 -15 -36.2002 -15h-12.9326v12.9336c0 13.585 5.39062 26.6084 15 36.2002z" />
    <glyph glyph-name="chinese-fried-rice" unicode="&#xf110;" 
d="M273.634 448.233c9.13477 -0.27832 16.5488 -7.9209 16.5488 -17.0605c0 -0.751953 -0.0966797 -1.96387 -0.21582 -2.70605l-12.4004 -84.5664c4.05859 1.04395 8.25 1.69922 12.5674 1.69922c9.77441 0 18.9258 -3.0752 26.8662 -8.06641l61.6338 86.2666
c2.81055 4.04883 9.0918 7.33398 14.0195 7.33398h0.113281c9.38379 -0.0380859 16.999 -7.68555 16.999 -17.0684c0 -3.09961 -1.49316 -7.63867 -3.33203 -10.1318l-85.334 -119.467c-2.82031 -3.94727 -9.04785 -7.15137 -13.8994 -7.15137
c-9.43066 0 -17.085 7.6543 -17.085 17.085c0 3.02344 1.42676 7.47266 3.18457 9.93262l3.83398 5.36719c-2.18457 1.0293 -4.5 1.7666 -7 1.7666c-7.15137 0 -13.5938 -4.62207 -16 -11.5c-1.75879 -5.00098 -5.69922 -8.89453 -10.7334 -10.5664
c-5.01758 -1.65625 -10.5645 -0.919922 -14.9336 2.06641c-2.81641 1.91113 -6.12012 2.93359 -9.5332 2.93359c-6.58789 0 -10.8047 -3.71484 -12.7334 -5.93359c-6.46875 -7.42383 -19.2656 -7.42383 -25.7334 0c-1.92871 2.21875 -6.14551 5.93359 -12.7334 5.93359
c-9.19922 0 -16.6924 -7.32031 -17.0332 -16.4336c0.0341797 -0.529297 0.0664062 -1.07324 0.0664062 -1.5c0 -8.12402 -5.7627 -15.0957 -13.7334 -16.7002c-8.96582 -1.80371 -16.0479 -8.28809 -19 -16.5664h186.233h46.4668
c-6.12695 0 -11.7451 3.25879 -14.7998 8.56641c-3.03809 5.29102 -3.03906 11.8262 0.0332031 17.0996c1.60449 2.76562 2.43359 5.59961 2.43359 8.4668c0 0.188477 -0.100586 0.363281 -0.100586 0.533203l22.5674 31.6006
c7.18457 -8.80664 11.666 -19.8965 11.666 -32.1338c0 -0.972656 -0.0488281 -1.94434 -0.0996094 -2.89941c14.5596 -5.14062 26.0684 -16.6934 31.2334 -31.2334h3h0.00878906c6.78906 0 14.042 -5.22656 16.1914 -11.667l34.1328 -102.399
c0.483398 -1.45117 0.875977 -3.87109 0.875977 -5.40039c0 -9.42578 -7.64941 -17.0762 -17.0762 -17.0762c-6.79395 0 -14.0518 5.23047 -16.2002 11.6758l-18.333 55.0332l-21.2002 -156.6c-2.28711 -16.9297 -16.749 -29.5664 -33.833 -29.5664h-230.5
c-17.0664 0 -31.5127 12.6367 -33.7998 29.5664l-12.167 89.9004h-43.5664h-0.0078125c-9.42188 0 -17.0684 7.64648 -17.0684 17.0684c0 1.5293 0.392578 3.94727 0.875977 5.39844l30.2334 90.6992c4.625 13.9111 17.7852 23.3672 32.4004 23.3672h5.39941
c2.9541 20.3555 16.293 37.7832 34.9004 46.0664c5.39258 22.4941 25.6846 39.2666 49.7998 39.2666c9.0625 0 17.8857 -2.44434 25.5996 -6.9668c8.22852 4.83105 17.9023 7.12988 27.4668 6.83398l15.3672 105c1.07715 8.19238 8.65918 14.8418 16.9219 14.8418
c0.150391 0 0.394531 -0.00390625 0.544922 -0.00878906zM97.6338 209.066l-22.7334 -68.2666h202.933l22.7334 68.2666h-202.933z" />
    <glyph glyph-name="sandwich-with-fried-egg" unicode="&#xf111;" 
d="M256 379.733c143.548 0 204.8 -17.8691 204.8 -59.7334c0 -15.9912 -8.5332 -27.6172 -17.0664 -34.7002v-246.899c0 -18.8252 -15.3086 -34.1338 -34.1338 -34.1338h-307.199c-18.8252 0 -34.1338 15.3086 -34.1338 34.1338v246.733
c-8.56738 6.97949 -17.0664 18.5674 -17.0664 34.8662c0 41.8643 61.252 59.7334 204.8 59.7334zM256 311.467c-51.8486 0 -69.1426 -26.9297 -83.667 -45.6006c-14.5234 -18.6709 -52.8662 -52.0381 -52.8662 -90.9326c0 -40.0049 33.5918 -77.5254 44.5996 -88.5332
c11.0078 -11.0088 28.5137 -48 91.9336 -48c70.3486 0 73.6133 22.2783 98.6338 50.8994c20.9912 24.0127 37.8994 41.7549 37.8994 85.6338c0 40.7549 -1.99121 79.9531 -23 103.967c-11.8096 13.4824 -33.501 13.9629 -52.667 19.0664
c-21.4521 5.7168 -39.209 13.5 -60.8662 13.5zM281.6 226.134c32.9736 0 59.7334 -26.7607 59.7334 -59.7334c0 -32.9736 -26.7598 -59.7334 -59.7334 -59.7334c-32.9727 0 -59.7334 26.7598 -59.7334 59.7334c0 32.9727 26.7607 59.7334 59.7334 59.7334z" />
    <glyph glyph-name="garlic" unicode="&#xf10e;" 
d="M290.134 294.4c0 -58.0273 170.666 -68.2666 170.666 -187.733c0 -56.3203 -46.0801 -102.4 -102.399 -102.4c-4.16504 0 -8.46582 0.40918 -12.8008 0.990234c8.1582 14.7627 12.8008 31.8291 12.8008 50.21c0 54.7666 -34.4746 124.177 -35.9424 127.13
c-4.21582 8.41309 -14.4727 11.8438 -22.9043 7.59473c-8.43066 -4.21582 -11.8438 -14.4727 -7.61133 -22.9043c0.324219 -0.648438 32.3242 -65.041 32.3242 -111.82c0 -33.3145 -29.0811 -68.2666 -68.2666 -68.2666c-39.1846 0 -68.2666 34.9521 -68.2666 68.2666
c0 12.373 5.12012 38.5195 7.09961 47.5645c2.01367 9.19922 -3.80566 18.2959 -13.0215 20.3096s-18.3125 -3.80566 -20.3271 -13.0215c-0.801758 -3.68652 -7.88477 -36.5918 -7.88477 -54.8525c0 -18.3809 4.65918 -35.4473 12.8008 -50.2275
c-7.9873 -1.02344 -16.4014 -1.29688 -25.4473 -0.22168c-53.1113 6.34863 -90.8965 50.8242 -89.7188 104.294c2.54297 115.2 170.632 120.73 170.632 185.089v68.2666c0 9.4209 7.64648 17.0664 17.0674 17.0664h1.57031c3.51562 9.91602 12.9023 17.0664 24.0293 17.0664
c14.1309 0 25.6006 -11.4688 25.6006 -25.5996v-76.7998z" />
    <glyph glyph-name="food-and-wine" unicode="&#xf105;" 
d="M211.733 396.8h225.066c7.35645 0 13.8965 -4.70215 16.2002 -11.7002c5.18848 -15.667 7.7998 -31.8369 7.7998 -48.0332c0 -73.835 -52.2305 -134.828 -119.467 -143.8v-105.4l-34.1328 39.2334v66.167c-67.2363 8.97168 -119.467 69.9648 -119.467 143.8
c0 16.1963 2.61133 32.3662 7.7998 48.0332c2.30371 6.99805 8.84473 11.7002 16.2002 11.7002zM224.733 362.667c-1.89453 -8.44824 -2.86719 -17.0332 -2.86719 -25.6006c0 -43.4688 23.2109 -81.1406 56.9004 -99.2998c7.59473 -4.0957 15.1504 5.66406 9.4668 12.167
c-16.1797 18.5508 -27.2998 42.2646 -30.8672 68.6328c-0.699219 5.25684 3.39258 9.9668 8.7002 9.9668h160.2l0.100586 0.100586c0.852539 11.3486 -0.0253906 22.8027 -2.53418 34.0332h-199.1zM102.4 192h102.399h0.0283203
c4.18848 0 9.86621 -2.52344 12.6719 -5.63379l153.6 -170.666c2.42578 -2.68945 4.39453 -7.81055 4.39453 -11.4316c0 -9.42188 -7.64746 -17.0684 -17.0684 -17.0684h-0.0253906h-273.067h-0.00878906c-5.49609 0 -12.1523 3.88281 -14.8574 8.66602
c0 0 -19.2666 34.7432 -19.2666 88.6006c0 58.9883 38.3662 101.7 38.3662 101.7c2.8125 3.21582 8.56152 5.8291 12.834 5.83301zM117.767 157.866l122.867 -136.533h79.4326l-72.0664 80.1006c-5.53027 -0.833984 -14.9688 0.540039 -21.0664 3.06641
c-15.3008 6.36035 -24.4404 19.4268 -20.4004 29.167c0.979492 2.33203 3.83105 5.34863 6.36719 6.7334l-15.7002 17.4658h-79.4336zM241.667 73.9668c2.68945 -0.00878906 7.09473 -0.93457 9.83301 -2.06641l0.00585938 -0.00292969
c9.30859 -3.86719 14.8662 -11.8145 12.4043 -17.7393c-0.00292969 -0.00683594 -0.00683594 -0.0175781 -0.00976562 -0.0253906c-2.47363 -5.90723 -12.0234 -7.56836 -21.3154 -3.70703c-0.00488281 0.00195312 -0.0136719 0.00585938 -0.0185547 0.0078125
c-9.30078 3.86719 -14.8564 11.8115 -12.3994 17.7334c1.34766 3.23047 6.5 5.8291 11.5 5.7998z" />
  </font>
</defs>
</svg>
